<?xml version="1.0" encoding="UTF-8"?>
<svg version="1.1" xmlns="http://www.w3.org/2000/svg" width="495" height="250">
<path d="M0 0 C5.42894764 3.7545993 10.12738399 7.62830683 14 13 C14 13.66 14 14.32 14 15 C14.99 15.33 15.98 15.66 17 16 C18.53886108 18.24910466 19.87867795 20.43313153 21.1875 22.8125 C21.58549805 23.53405273 21.98349609 24.25560547 22.39355469 24.99902344 C30.79364559 40.64310681 36.15896252 57.807357 42.13378906 74.48022461 C45.34957081 83.45296174 48.62098065 92.39955595 52 101.3125 C55.21868144 109.81004983 58.23893926 118.34220151 61 127 C63.4858786 123.89844256 65.26881488 120.7070032 67.0390625 117.15234375 C67.6151123 115.99895508 68.19116211 114.84556641 68.78466797 113.65722656 C69.39831906 112.41742019 70.01175869 111.17750912 70.625 109.9375 C71.2578351 108.66496935 71.89081137 107.3925089 72.52392578 106.12011719 C76.42135705 98.27086841 80.231699 90.38338204 83.9543457 82.44970703 C86.18183322 77.70664569 88.4633202 72.99646585 90.8125 68.3125 C91.12227783 67.69101074 91.43205566 67.06952148 91.7512207 66.42919922 C93.8570836 62.22165692 96.01988774 58.04684662 98.203125 53.87890625 C99.32297028 51.71096519 100.44276199 49.54299646 101.5625 47.375 C102.11204346 46.34286377 102.66158691 45.31072754 103.2277832 44.24731445 C103.73140381 43.26593506 104.23502441 42.28455566 104.75390625 41.2734375 C105.21095947 40.40122559 105.6680127 39.52901367 106.13891602 38.63037109 C107.20970711 35.35940333 106.86906011 33.29994292 106 30 C105.505 29.38125 105.01 28.7625 104.5 28.125 C102.28227358 24.9832209 101.75360063 21.768461 102 18 C103.60471436 14.79057129 104.93181714 12.747728 107.875 10.6875 C112.93861444 9.0492718 117.96878021 8.87073734 123.25537109 8.85473633 C123.95540756 8.85137772 124.65544403 8.8480191 125.37669373 8.84455872 C127.6756267 8.8351115 129.97448636 8.8331088 132.2734375 8.83203125 C133.88237538 8.8288145 135.49131297 8.82545011 137.10025024 8.82194519 C140.46755654 8.81596961 143.83483722 8.81410369 147.20214844 8.81469727 C151.50142302 8.81479883 155.80053225 8.80114509 160.09976768 8.78392506 C163.42162825 8.77276733 166.74344931 8.77077921 170.06532669 8.77130699 C171.64963984 8.77013262 173.2339542 8.76574157 174.81824875 8.75797462 C177.04089461 8.74809749 179.26318741 8.75108276 181.48583984 8.75708008 C183.3773024 8.75494255 183.3773024 8.75494255 185.30697632 8.75276184 C190.5528887 9.10396179 195.36662023 9.68532848 199.5625 13.0625 C201.5915223 17.20876297 201.0153605 20.58274792 200 25 C199.67 25.66 199.34 26.32 199 27 C199.93199219 26.97679687 200.86398437 26.95359375 201.82421875 26.9296875 C218.31579234 26.69623752 238.32156126 28.71581676 253 37 C258.01391942 44.52087912 254.47729367 57.50740807 253.45581055 66.19140625 C253.18493382 68.52207991 252.93499432 70.85444703 252.68554688 73.1875 C252.51428638 74.67722937 252.34180541 76.16681905 252.16796875 77.65625 C252.09595749 78.34996704 252.02394623 79.04368408 251.94975281 79.75842285 C251.60400846 82.55088785 251.26527975 84.62397881 249.6262207 86.94726562 C247.13847091 88.55771107 244.88005914 88.19200394 242 88 C241.484375 86.80375 240.96875 85.6075 240.4375 84.375 C239.62960688 82.5812513 238.81643509 80.78987693 238 79 C237.50242187 77.89011719 237.00484375 76.78023438 236.4921875 75.63671875 C231.55832038 65.13790848 225.74672869 55.68799727 214.703125 50.89453125 C205.67599631 47.90722999 196.49996734 47.79416308 187.09179688 47.98510742 C183.5308709 48.05283392 180.42399714 47.97047329 177 47 C176.76410156 47.80695312 176.52820313 48.61390625 176.28515625 49.4453125 C174.70403425 53.81862868 172.62910968 57.78130205 170.4375 61.875 C170.04498047 62.62007813 169.65246094 63.36515625 169.24804688 64.1328125 C166.48679188 69.33655046 163.61188193 74.47114713 160.7109375 79.59765625 C156.05215967 87.84099452 151.60021349 96.18551368 147.1875 104.5625 C146.39713567 106.058273 145.60660594 107.5539586 144.81591797 109.04956055 C140.86898965 116.52139852 136.95262018 124.00798796 133.07177734 131.5144043 C132.59434082 132.43777588 132.1169043 133.36114746 131.625 134.3125 C131.15271973 135.22620361 130.68043945 136.13990723 130.19384766 137.08129883 C126.98430518 143.24172914 123.56725618 149.2537326 120.0625 155.25 C109.7139831 173.04782524 101.38056196 191.96117359 92.86914062 210.68823242 C92.40443359 211.7063501 91.93972656 212.72446777 91.4609375 213.7734375 C91.05665527 214.66466309 90.65237305 215.55588867 90.23583984 216.47412109 C87.71548954 221.62535465 86.46186897 224.04933251 81 226 C80.236875 226.680625 79.47375 227.36125 78.6875 228.0625 C75.15132335 230.61183666 72.33549596 231.29672596 68 231 C63.29576315 229.43192105 63.29576315 229.43192105 61 227 C59.96582031 224.78442383 59.96582031 224.78442383 59.078125 222.14453125 C58.74135742 221.16274902 58.40458984 220.1809668 58.05761719 219.16943359 C57.70860352 218.12352051 57.35958984 217.07760742 57 216 C56.26144498 213.8629256 55.52184098 211.72621346 54.78125 209.58984375 C53.63637859 206.2555533 52.49416062 202.92039041 51.35546875 199.58398438 C49.32647675 193.68177911 47.20556007 187.85249827 44.81445312 182.08666992 C44 180 44 180 43 176.375 C42.03173384 173.1071017 40.64865904 170.33336619 39.11022949 167.30639648 C37.11906176 163.16993435 35.52513797 158.88077278 33.890625 154.59375 C33.51895203 153.6284436 33.14727905 152.66313721 32.76434326 151.6685791 C31.58914259 148.61381247 30.41948858 145.55695739 29.25 142.5 C28.44958566 140.41652567 27.64880802 138.33319088 26.84765625 136.25 C24.89423369 131.16827254 22.945349 126.0848232 21 121 C20.55011719 121.39832031 20.10023438 121.79664063 19.63671875 122.20703125 C8.90509028 131.046108 -5.39526638 131.18164942 -18.69140625 132.8828125 C-20.68881637 133.14440393 -22.68612434 133.40677648 -24.68333435 133.66989136 C-29.90783326 134.35654143 -35.13339145 135.0347291 -40.35931396 135.71044922 C-48.75472779 136.79696912 -57.14872237 137.89430241 -65.54218864 138.99575424 C-68.47222996 139.37867282 -71.40288131 139.75662896 -74.33363342 140.13406372 C-76.11770671 140.36672322 -77.90176035 140.59953345 -79.68579102 140.83251953 C-80.50288544 140.93641998 -81.31997986 141.04032043 -82.16183472 141.14736938 C-86.2066363 141.62193937 -86.2066363 141.62193937 -90 143 C-89.94323815 154.80646384 -85.06743929 169.22711198 -77 178 C-68.66430518 185.60370728 -58.70397517 188.64913265 -47.49609375 188.21875 C-36.24690074 187.23290523 -26.78053442 184.50995953 -19 176 C-18.34 176 -17.68 176 -17 176 C-16.71898437 175.41863281 -16.43796875 174.83726562 -16.1484375 174.23828125 C-15.07012069 172.1366638 -13.89690477 170.1763702 -12.625 168.1875 C-10.98120165 165.60918072 -9.47650206 163.02217758 -8.0625 160.3125 C-5.1495912 155.63419193 -2.17587635 152.97220007 2.9375 150.6875 C9.76034021 149.15584199 15.77228863 149.88614431 22 153 C24.92145056 154.9396516 26.57852084 156.78155662 28 160 C30.04770649 173.07992361 25.70082342 182.30027099 18.19335938 192.60620117 C1.51593917 214.72178016 -20.18560146 229.59881763 -47.6875 234.3125 C-74.92622196 237.54632087 -99.6643862 232.73323257 -121.69140625 215.94921875 C-136.87971953 203.12524527 -144.66964124 184.61220311 -150 166 C-150.33 165.01 -150.66 164.02 -151 163 C-151.11797963 161.17884152 -151.17939316 159.35379275 -151.20874023 157.52905273 C-151.22803085 156.40615341 -151.24732147 155.28325409 -151.26719666 154.12632751 C-151.32538337 148.93591429 -151.37463183 143.74558001 -151.4050293 138.55493164 C-151.42265325 135.83633638 -151.45715221 133.11881598 -151.50756836 130.40063477 C-151.78063162 114.50951918 -151.64493368 100.6128451 -145 86 C-144.36348511 84.5296228 -144.36348511 84.5296228 -143.71411133 83.02954102 C-142.62298778 80.64735695 -141.45064832 78.3572454 -140.1875 76.0625 C-139.75937012 75.27166016 -139.33124023 74.48082031 -138.89013672 73.66601562 C-126.30778562 51.03542029 -104.18908775 34.63433872 -79.5625 27.25 C-65.50516443 23.76146885 -51.44519753 22.88549268 -37.1875 25.3125 C-36.49414551 25.43004639 -35.80079102 25.54759277 -35.08642578 25.66870117 C-30.13996838 26.59357642 -25.67205195 28.13222559 -21 30 C-28.05071255 20.12900243 -38.37569331 15.44767694 -49.7578125 12.01953125 C-52.51965244 10.76371204 -53.52193745 9.63705128 -55 7 C-55.71800318 3.57696158 -55.69337624 0.42805214 -55 -3 C-44.58044909 -17.90434143 -11.76318494 -7.65143336 0 0 Z M-83 74 C-87.73442807 80.29220763 -91.91719656 87.06846481 -93 95 C-92.61959132 97.70869625 -92.61959132 97.70869625 -92 100 C-86.9088991 101.55408361 -82.11566938 100.57700522 -76.95703125 99.85546875 C-75.99222336 99.72562088 -75.02741547 99.59577301 -74.03337097 99.46199036 C-71.99963704 99.18600397 -69.96646404 98.90585635 -67.93383789 98.62182617 C-64.81488053 98.18783124 -61.69388445 97.77178736 -58.57226562 97.35742188 C-56.59620687 97.08701173 -54.62028988 96.81556314 -52.64453125 96.54296875 C-51.7080928 96.41891159 -50.77165436 96.29485443 -49.80683899 96.16703796 C-48.94221542 96.04383682 -48.07759186 95.92063568 -47.18676758 95.79370117 C-46.42463455 95.68853683 -45.66250153 95.5833725 -44.87727356 95.47502136 C-42.77121066 95.1125731 -42.77121066 95.1125731 -41 93 C-39.84010562 85.37783693 -43.34496015 78.0173116 -47.4921875 71.7421875 C-50.93341159 67.48077529 -54.00791256 65.38987806 -59.578125 64.6640625 C-68.68273123 64.53095422 -76.77459615 66.96545878 -83 74 Z " fill="#302963" transform="translate(151,13)"/>
<path d="M0 0 C17.64690718 14.72083881 25.1434092 37.995815 27.41015625 60.15625 C27.51953125 63.46484375 27.51953125 63.46484375 27.41015625 66.15625 C25.4017769 68.16462935 21.58642981 67.8878549 18.82714844 68.23193359 C18.03168106 68.33455002 17.23621368 68.43716644 16.41664124 68.54289246 C13.76393018 68.88412577 11.11049205 69.21933842 8.45703125 69.5546875 C6.6029944 69.79227866 4.74901157 70.03029165 2.89508057 70.26870728 C-2.01522245 70.89921575 -6.92613373 71.52485011 -11.83721924 72.14923096 C-19.62573012 73.14015055 -27.41334818 74.1380498 -35.20088959 75.13655472 C-37.89261429 75.48094698 -40.58461584 75.8230991 -43.27667236 76.16488647 C-44.99079813 76.38357766 -46.70488959 76.60253784 -48.41894531 76.82177734 C-49.66565443 76.98073518 -49.66565443 76.98073518 -50.93754959 77.14290428 C-55.37450921 77.7157573 -59.80276901 78.32797272 -64.22741699 78.98956299 C-65.16204647 79.12832666 -66.09667595 79.26709034 -67.05962753 79.41005898 C-68.83433979 79.67583087 -70.60824352 79.94708914 -72.38107681 80.22511864 C-77.84572381 81.04357416 -83.0632739 81.27468455 -88.58984375 81.15625 C-82.64377588 108.08284099 -82.64377588 108.08284099 -69.58984375 132.15625 C-68.90148437 133.13851562 -68.90148437 133.13851562 -68.19921875 134.140625 C-61.15832859 143.28568923 -49.46569023 148.82195047 -38.30859375 150.8046875 C-23.5270671 152.71609181 -8.17784822 150.17472801 3.9609375 141.2890625 C13.904162 133.05082187 19.51391586 121.90251902 24.41015625 110.15625 C26.56270912 110.88674082 28.70711489 111.6412772 30.84765625 112.40625 C32.04261719 112.82390625 33.23757812 113.2415625 34.46875 113.671875 C37.41015625 115.15625 37.41015625 115.15625 38.1796875 117.0300293 C38.57304252 120.65897939 36.61085482 123.58747249 34.97265625 126.71875 C34.60503174 127.43184326 34.23740723 128.14493652 33.85864258 128.87963867 C23.20676237 149.06250753 7.4615736 162.4770073 -13.8203125 170.3515625 C-35.42370521 176.97382436 -59.21892692 174.92482877 -79.33984375 165.03125 C-99.74341961 153.22268047 -111.98687296 134.49409356 -119.46484375 112.53125 C-119.75117676 111.69730713 -120.03750977 110.86336426 -120.33251953 110.00415039 C-128.91198424 83.46352729 -126.4285854 54.17128343 -114.58984375 29.15625 C-110.32819708 21.21688421 -104.89021841 14.56677107 -98.58984375 8.15625 C-97.97625 7.52976562 -97.36265625 6.90328125 -96.73046875 6.2578125 C-87.81725704 -2.16022078 -76.36150199 -7.75450267 -64.58984375 -10.84375 C-63.7803125 -11.06804688 -62.97078125 -11.29234375 -62.13671875 -11.5234375 C-40.96416855 -16.3838028 -17.74772818 -12.63488341 0 0 Z M-72.58984375 24.15625 C-77.32427182 30.44845763 -81.50704031 37.22471481 -82.58984375 45.15625 C-82.20943507 47.86494625 -82.20943507 47.86494625 -81.58984375 50.15625 C-76.49874285 51.71033361 -71.70551313 50.73325522 -66.546875 50.01171875 C-65.58206711 49.88187088 -64.61725922 49.75202301 -63.62321472 49.61824036 C-61.58948079 49.34225397 -59.55630779 49.06210635 -57.52368164 48.77807617 C-54.40472428 48.34408124 -51.2837282 47.92803736 -48.16210938 47.51367188 C-46.18605062 47.24326173 -44.21013363 46.97181314 -42.234375 46.69921875 C-41.29793655 46.57516159 -40.36149811 46.45110443 -39.39668274 46.32328796 C-38.53205917 46.20008682 -37.66743561 46.07688568 -36.77661133 45.94995117 C-36.0144783 45.84478683 -35.25234528 45.7396225 -34.46711731 45.63127136 C-32.36105441 45.2688231 -32.36105441 45.2688231 -30.58984375 43.15625 C-29.42994937 35.53408693 -32.9348039 28.1735616 -37.08203125 21.8984375 C-40.52325534 17.63702529 -43.59775631 15.54612806 -49.16796875 14.8203125 C-58.27257498 14.68720422 -66.3644399 17.12170878 -72.58984375 24.15625 Z " fill="#D1631D" transform="translate(140.58984375,62.84375)"/>
<path d="M0 0 C5.42894764 3.7545993 10.12738399 7.62830683 14 13 C14 13.66 14 14.32 14 15 C14.99 15.33 15.98 15.66 17 16 C18.53886108 18.24910466 19.87867795 20.43313153 21.1875 22.8125 C21.58549805 23.53405273 21.98349609 24.25560547 22.39355469 24.99902344 C30.78812147 40.63281885 36.16492856 57.78812737 42.12060547 74.45605469 C44.63987389 81.50201559 47.17867845 88.53367897 49.87109375 95.515625 C50.297854 96.62454102 50.72461426 97.73345703 51.16430664 98.87597656 C51.94964762 100.90243817 52.74388817 102.92548187 53.54858398 104.94433594 C53.89091064 105.82895508 54.2332373 106.71357422 54.5859375 107.625 C54.8854834 108.38039063 55.1850293 109.13578125 55.49365234 109.9140625 C56.07460042 112.30732208 55.78603855 113.69341716 55 116 C53.36313669 112.25901504 51.72639431 108.51797725 50.08984375 104.77685547 C48.70747078 101.61683218 47.32460397 98.45702564 45.94140625 95.29736328 C44.15690081 91.22042657 42.37456712 87.1425448 40.59326172 83.06420898 C39.86507746 81.39790614 39.13623738 79.73188974 38.40673828 78.06616211 C37.32151064 75.58782877 36.23819738 73.10867331 35.15625 70.62890625 C34.80423523 69.82222 34.45222046 69.01553375 34.08953857 68.18440247 C32.05886721 63.5078289 30.09469487 58.80992843 28.18365479 54.08328247 C25.40732737 47.21851723 22.52635627 40.57748286 18.75 34.1875 C18.0540271 33.00269043 18.0540271 33.00269043 17.34399414 31.79394531 C8.65090245 17.45041723 -2.69714755 6.84397852 -19 2 C-19.58958496 1.82202881 -20.17916992 1.64405762 -20.78662109 1.46069336 C-23.52189151 0.89137334 -26.06532975 0.88808842 -28.859375 0.90234375 C-29.97441406 0.90556641 -31.08945313 0.90878906 -32.23828125 0.91210938 C-33.97658203 0.92467773 -33.97658203 0.92467773 -35.75 0.9375 C-36.92433594 0.94201172 -38.09867187 0.94652344 -39.30859375 0.95117188 C-42.20578072 0.96294906 -45.10286454 0.97939674 -48 1 C-48.33 1.99 -48.66 2.98 -49 4 C-47.741875 4.0825 -46.48375 4.165 -45.1875 4.25 C-28.01295502 6.23891444 -14.82197527 17.24371118 -4 30 C9.45767277 47.9509784 18.26563111 71.4500417 27 92 C30.02755161 98.78713809 33.15900938 105.52765294 36.27734375 112.2734375 C36.53523682 112.83160156 36.79312988 113.38976562 37.05883789 113.96484375 C37.77319724 115.50956477 38.48874049 117.05373837 39.20483398 118.59765625 C43.51202269 127.90148167 47.75774622 137.23274882 51.97827148 146.57617188 C52.78802504 148.3666869 53.59956493 150.15639507 54.4128418 151.9453125 C55.60631795 154.57100789 56.79396661 157.19927212 57.98046875 159.828125 C58.33989059 160.6158429 58.69931244 161.40356079 59.06962585 162.21514893 C61.09665832 166.72501687 62.78842074 171.2379057 64.30348206 175.9432373 C65.25202421 178.74420765 66.46141724 181.37551374 67.7421875 184.0390625 C68.24903076 185.10745361 68.75587402 186.17584473 69.27807617 187.27661133 C69.80506104 188.38157959 70.3320459 189.48654785 70.875 190.625 C75.96042922 201.45467173 80.83310333 212.15867579 83 224 C79.09220801 227.99327494 75.74699312 230.96524448 69.984375 231.2109375 C66.2257608 230.81139977 63.55634593 229.70795856 61 227 C59.96582031 224.78442383 59.96582031 224.78442383 59.078125 222.14453125 C58.74135742 221.16274902 58.40458984 220.1809668 58.05761719 219.16943359 C57.70860352 218.12352051 57.35958984 217.07760742 57 216 C56.26144498 213.8629256 55.52184098 211.72621346 54.78125 209.58984375 C53.63637859 206.2555533 52.49416062 202.92039041 51.35546875 199.58398438 C49.32647675 193.68177911 47.20556007 187.85249827 44.81445312 182.08666992 C44 180 44 180 43 176.375 C42.03173384 173.1071017 40.64865904 170.33336619 39.11022949 167.30639648 C37.11906176 163.16993435 35.52513797 158.88077278 33.890625 154.59375 C33.51895203 153.6284436 33.14727905 152.66313721 32.76434326 151.6685791 C31.58914259 148.61381247 30.41948858 145.55695739 29.25 142.5 C28.44958566 140.41652567 27.64880802 138.33319088 26.84765625 136.25 C24.89423369 131.16827254 22.945349 126.0848232 21 121 C20.55011719 121.39832031 20.10023438 121.79664063 19.63671875 122.20703125 C8.90509028 131.046108 -5.39526638 131.18164942 -18.69140625 132.8828125 C-20.68881637 133.14440393 -22.68612434 133.40677648 -24.68333435 133.66989136 C-29.90783326 134.35654143 -35.13339145 135.0347291 -40.35931396 135.71044922 C-48.75472779 136.79696912 -57.14872237 137.89430241 -65.54218864 138.99575424 C-68.47222996 139.37867282 -71.40288131 139.75662896 -74.33363342 140.13406372 C-76.11770671 140.36672322 -77.90176035 140.59953345 -79.68579102 140.83251953 C-80.50288544 140.93641998 -81.31997986 141.04032043 -82.16183472 141.14736938 C-86.2066363 141.62193937 -86.2066363 141.62193937 -90 143 C-89.94323815 154.80646384 -85.06743929 169.22711198 -77 178 C-68.66430518 185.60370728 -58.70397517 188.64913265 -47.49609375 188.21875 C-36.24690074 187.23290523 -26.78053442 184.50995953 -19 176 C-18.34 176 -17.68 176 -17 176 C-16.71898437 175.41863281 -16.43796875 174.83726562 -16.1484375 174.23828125 C-15.07012069 172.1366638 -13.89690477 170.1763702 -12.625 168.1875 C-10.98120165 165.60918072 -9.47650206 163.02217758 -8.0625 160.3125 C-5.1495912 155.63419193 -2.17587635 152.97220007 2.9375 150.6875 C9.70521887 149.16821617 15.83537572 149.82834548 22 153 C24.51897001 155.04408222 26.55511686 157.08190267 28 160 C28 161.98 28 163.96 28 166 C21.07 163.525 21.07 163.525 14 161 C13.154375 163.10375 12.30875 165.2075 11.4375 167.375 C5.93640738 180.47857213 -2.7267581 192.20420096 -16.12109375 197.90234375 C-32.35193348 203.71767135 -48.49273679 203.61285247 -64.1875 196.3125 C-79.94450769 187.88003885 -88.87191589 172.75272242 -94 156 C-99 138.01195219 -99 138.01195219 -99 131 C-87.54970172 129.48621395 -76.09928092 127.97335815 -64.64871216 126.46161938 C-59.32906387 125.75927509 -54.00945485 125.05663638 -48.68994141 124.35327148 C-3.4464374 118.3714202 -3.4464374 118.3714202 16 116 C15.84588238 114.08624436 15.69023067 112.17261223 15.53393555 110.2590332 C15.44742233 109.19336624 15.36090912 108.12769928 15.27177429 107.02973938 C13.46094964 86.84266898 6.03818072 65.47359904 -9.5390625 51.765625 C-26.12352757 39.05246158 -46.08471216 35.97246144 -66.44628906 38.27685547 C-82.20888176 40.59295131 -96.22628954 47.25868579 -108 58 C-108.6084375 58.51691406 -109.216875 59.03382812 -109.84375 59.56640625 C-119.7924862 68.58810112 -125.87812202 81.44686352 -130 94 C-130.41378906 95.23492187 -130.82757813 96.46984375 -131.25390625 97.7421875 C-139.68726956 125.92550887 -133.43776088 157.26500353 -120.25 182.875 C-111.3017573 199.2753794 -97.60751814 211.47777849 -80 218 C-79.08476563 218.39058594 -78.16953125 218.78117188 -77.2265625 219.18359375 C-57.52954689 226.35291051 -32.86133546 223.55633101 -13.93359375 215.2734375 C-4.92013318 211.01440366 2.08322077 205.09493869 9 198 C9.66515625 197.34386719 10.3303125 196.68773437 11.015625 196.01171875 C18.22983105 188.42380383 23.03796933 178.59936442 27 169 C27.33 169 27.66 169 28 169 C27.07086374 185.72445262 13.57595262 199.88315031 2 211 C-20.09374967 230.30608193 -47.13844054 236.76981261 -76 235 C-96.19748381 232.93681617 -115.93839761 223.84147554 -129.1796875 208.25 C-139.55336482 195.42760056 -145.5095113 181.67959896 -150 166 C-150.33 165.01 -150.66 164.02 -151 163 C-151.11797963 161.17884152 -151.17939316 159.35379275 -151.20874023 157.52905273 C-151.22803085 156.40615341 -151.24732147 155.28325409 -151.26719666 154.12632751 C-151.32538337 148.93591429 -151.37463183 143.74558001 -151.4050293 138.55493164 C-151.42265325 135.83633638 -151.45715221 133.11881598 -151.50756836 130.40063477 C-151.78063162 114.50951918 -151.64493368 100.6128451 -145 86 C-144.36348511 84.5296228 -144.36348511 84.5296228 -143.71411133 83.02954102 C-142.62298778 80.64735695 -141.45064832 78.3572454 -140.1875 76.0625 C-139.75937012 75.27166016 -139.33124023 74.48082031 -138.89013672 73.66601562 C-126.30778562 51.03542029 -104.18908775 34.63433872 -79.5625 27.25 C-65.50516443 23.76146885 -51.44519753 22.88549268 -37.1875 25.3125 C-36.49414551 25.43004639 -35.80079102 25.54759277 -35.08642578 25.66870117 C-30.13996838 26.59357642 -25.67205195 28.13222559 -21 30 C-28.05071255 20.12900243 -38.37569331 15.44767694 -49.7578125 12.01953125 C-52.51965244 10.76371204 -53.52193745 9.63705128 -55 7 C-55.71800318 3.57696158 -55.69337624 0.42805214 -55 -3 C-44.58044909 -17.90434143 -11.76318494 -7.65143336 0 0 Z " fill="#262524" transform="translate(151,13)"/>
<path d="M0 0 C0.70003647 -0.00335861 1.40007294 -0.00671722 2.12132263 -0.01017761 C4.4202556 -0.01962483 6.71911527 -0.02162753 9.01806641 -0.02270508 C10.62700428 -0.02592183 12.23594187 -0.02928622 13.84487915 -0.03279114 C17.21218544 -0.03876672 20.57946613 -0.04063264 23.94677734 -0.04003906 C28.24605192 -0.03993749 32.54516116 -0.05359124 36.84439659 -0.07081127 C40.16625716 -0.081969 43.48807821 -0.08395712 46.8099556 -0.08342934 C48.39426875 -0.08460371 49.97858311 -0.08899476 51.56287766 -0.0967617 C53.78552352 -0.10663884 56.00781632 -0.10365357 58.23046875 -0.09765625 C60.1219313 -0.09979378 60.1219313 -0.09979378 62.05160522 -0.10197449 C67.29751761 0.24922546 72.11124914 0.83059215 76.30712891 4.20776367 C78.33615121 8.35402664 77.7599894 11.72801159 76.74462891 16.14526367 C76.41462891 16.80526367 76.08462891 17.46526367 75.74462891 18.14526367 C76.67662109 18.12206055 77.60861328 18.09885742 78.56884766 18.07495117 C95.06042125 17.84150119 115.06619016 19.86108043 129.74462891 28.14526367 C134.75854832 35.6661428 131.22192257 48.65267174 130.20043945 57.33666992 C129.92956272 59.66734358 129.67962323 61.9997107 129.43017578 64.33276367 C129.25891529 65.82249304 129.08643432 67.31208272 128.91259766 68.80151367 C128.80458076 69.84208923 128.80458076 69.84208923 128.69438171 70.90368652 C128.34863736 73.69615152 128.00990865 75.76924248 126.37084961 78.0925293 C123.88309981 79.70297474 121.62468805 79.33726761 118.74462891 79.14526367 C118.22900391 77.94901367 117.71337891 76.75276367 117.18212891 75.52026367 C116.37423579 73.72651497 115.561064 71.9351406 114.74462891 70.14526367 C114.24705078 69.03538086 113.74947266 67.92549805 113.23681641 66.78198242 C108.30294929 56.28317216 102.4913576 46.83326094 91.44775391 42.03979492 C82.42062522 39.05249367 73.24459625 38.93942675 63.83642578 39.13037109 C60.2754998 39.19809759 57.16862604 39.11573696 53.74462891 38.14526367 C53.50873047 38.9522168 53.27283203 39.75916992 53.02978516 40.59057617 C51.44866315 44.96389235 49.37373858 48.92656572 47.18212891 53.02026367 C46.59334961 54.13788086 46.59334961 54.13788086 45.99267578 55.27807617 C43.23142079 60.48181413 40.35651084 65.61641081 37.45556641 70.74291992 C32.79679215 78.98625188 28.34466732 87.33068944 23.93212891 95.70776367 C23.14615085 97.19547565 22.3600159 98.68310475 21.57373047 100.1706543 C18.06911594 106.80617687 14.57957402 113.44914703 11.12353516 120.11010742 C10.58768799 121.14256592 10.05184082 122.17502441 9.49975586 123.23876953 C8.53800341 125.09597357 7.57920905 126.9547144 6.62426758 128.81542969 C3.56151681 134.73927572 0.23530143 140.46347636 -3.25537109 146.14526367 C-3.58537109 145.48526367 -3.91537109 144.82526367 -4.25537109 144.14526367 C-3.16715625 141.35520172 -2.01171889 138.67156531 -0.75537109 135.95776367 C-0.26423828 134.87205078 -0.26423828 134.87205078 0.23681641 133.7644043 C2.74185982 128.25048354 5.31848056 122.76949321 7.88278198 117.28295898 C11.35493 109.84877642 14.78821001 102.39671867 18.22293091 94.94519043 C32.5224421 63.92657279 32.5224421 63.92657279 38.91650391 50.23510742 C40.73143275 46.34571246 42.51245999 42.44416227 44.26025391 38.52416992 C53.05361947 18.97684259 53.05361947 18.97684259 61.13916016 14.95385742 C64.47545669 13.7519283 67.19020722 13.14526367 70.74462891 13.14526367 C71.07462891 12.15526367 71.40462891 11.16526367 71.74462891 10.14526367 C43.69462891 10.47526367 15.64462891 10.80526367 -13.25537109 11.14526367 C-13.58537109 11.80526367 -13.91537109 12.46526367 -14.25537109 13.14526367 C-13.18287109 13.22776367 -12.11037109 13.31026367 -11.00537109 13.39526367 C-6.91677233 14.21298342 -5.65989956 14.81591656 -3.25537109 18.14526367 C-0.85883191 23.73718843 -4.13869385 29.31966336 -6.22021484 34.58666992 C-9.53251253 42.68470733 -13.0873171 50.68458359 -16.60131836 58.6965332 C-18.89083095 63.93289455 -21.08661343 69.19146473 -23.18969727 74.50512695 C-25.32665838 79.79930736 -27.61815149 85.02871326 -29.88037109 90.27026367 C-34.27739641 100.48366549 -38.60334851 110.72451659 -42.86474609 120.99536133 C-45.93958524 128.4030433 -49.06781021 135.785367 -52.25537109 143.14526367 C-57.35102767 140.59743538 -59.51964792 132.3313151 -61.23974609 127.23901367 C-63.68150056 117.25409644 -57.82811659 109.19618919 -52.85498047 100.89379883 C-50.46919026 96.79440534 -48.52731733 92.52257624 -46.56787109 88.20776367 C-41.54709297 77.42916583 -36.16404636 66.82151029 -30.70805359 56.25788879 C-29.09905823 53.13856413 -27.50209456 50.01315658 -25.90649414 46.88696289 C-25.08678306 45.28843559 -24.26143792 43.69278671 -23.4309082 42.09985352 C-22.21016456 39.7552092 -21.01028157 37.40088212 -19.81396484 35.04370117 C-19.44017197 34.3374057 -19.06637909 33.63111023 -18.68125916 32.90341187 C-16.5139449 28.57269695 -15.80259494 25.81518067 -17.25537109 21.14526367 C-17.75037109 20.52651367 -18.24537109 19.90776367 -18.75537109 19.27026367 C-20.97309752 16.12848457 -21.50177047 12.91372467 -21.25537109 9.14526367 C-19.65065674 5.93583496 -18.32355395 3.89299167 -15.38037109 1.83276367 C-10.31675665 0.19453547 -5.28659089 0.01600101 0 0 Z " fill="#222422" transform="translate(274.25537109375,21.854736328125)"/>
<path d="M0 0 C0.71994141 -0.02384766 1.43988281 -0.04769531 2.18164062 -0.07226562 C4.28515625 -0.06640625 4.28515625 -0.06640625 7.9375 0.5625 C9.953125 2.859375 9.953125 2.859375 10.9375 5.5625 C10.625 9.375 10.625 9.375 9.9375 12.5625 C10.9275 12.2325 11.9175 11.9025 12.9375 11.5625 C19.31804184 10.9731782 25.30846919 11.273482 30.9375 14.5625 C35.63084963 19.37619193 36.12217711 23.28934362 36.05322266 29.72314453 C35.8576648 34.52132573 35.27214997 39.24457459 34.625 44 C34.50705078 44.97904297 34.38910156 45.95808594 34.26757812 46.96679688 C34.14189453 47.90458984 34.01621094 48.84238281 33.88671875 49.80859375 C33.77674561 50.65091553 33.66677246 51.4932373 33.5534668 52.36108398 C32.83317609 54.93534531 32.03324879 55.93373017 29.9375 57.5625 C26.77740467 58.61586511 24.3821864 58.76282888 21.0625 58.8125 C19.51949219 58.85117188 19.51949219 58.85117188 17.9453125 58.890625 C14.5626811 58.52161067 12.69814146 57.49800508 9.9375 55.5625 C10.90105353 39.81762528 10.90105353 39.81762528 11.9375 32.5625 C10.9475 32.5625 9.9575 32.5625 8.9375 32.5625 C8.83203857 33.21323486 8.72657715 33.86396973 8.61791992 34.53442383 C8.13276954 37.48349583 7.62911867 40.42911382 7.125 43.375 C6.95935547 44.39916016 6.79371094 45.42332031 6.62304688 46.47851562 C6.45224609 47.46142578 6.28144531 48.44433594 6.10546875 49.45703125 C5.95360107 50.36300049 5.8017334 51.26896973 5.64526367 52.20239258 C4.85411932 54.84054106 4.10251063 55.8951177 1.9375 57.5625 C-2.65885704 59.09461901 -7.25770447 58.999941 -12.0625 58.5625 C-15 56.9375 -15 56.9375 -17.0625 55.5625 C-18.40706767 56.20620801 -19.73800366 56.8784447 -21.0625 57.5625 C-30.49199409 59.86237661 -38.69765715 60.34427037 -47.4375 55.8125 C-50.41889855 53.25701553 -52.07503691 50.92589907 -54.0625 47.5625 C-54.40861328 48.50222656 -54.40861328 48.50222656 -54.76171875 49.4609375 C-55.25091797 50.68683594 -55.25091797 50.68683594 -55.75 51.9375 C-56.06324219 52.74960938 -56.37648438 53.56171875 -56.69921875 54.3984375 C-58.49268791 57.24537708 -59.84803197 57.672904 -63.0625 58.5625 C-72.48458827 60.11202115 -82.2691322 60.17555484 -91 55.875 C-95.3170161 52.61521234 -97.2049489 49.34954107 -98.8125 44.125 C-99.77011729 34.30942279 -98.10346241 26.92373201 -91.75 19.125 C-86.32240374 13.36035815 -80.01712405 11.75698971 -72.25 11.375 C-64.4042086 11.52247728 -59.13751671 13.60330269 -53.0625 18.5625 C-52.5675 19.5525 -52.5675 19.5525 -52.0625 20.5625 C-49.6324723 19.48248769 -47.91828814 18.43101272 -45.9375 16.625 C-39.29660893 11.86088249 -31.08812268 10.57356071 -23.0625 11.5625 C-19.97117723 12.36174244 -17.01996251 13.36237029 -14.0625 14.5625 C-13.96453125 13.88703125 -13.8665625 13.2115625 -13.765625 12.515625 C-13.61609375 11.62359375 -13.4665625 10.7315625 -13.3125 9.8125 C-13.17328125 8.93078125 -13.0340625 8.0490625 -12.890625 7.140625 C-10.74156659 0.45016015 -6.41298172 -0.09812843 0 0 Z M-30.0625 31.5625 C-30.7225 33.5425 -31.3825 35.5225 -32.0625 37.5625 C-31.7325 38.2225 -31.4025 38.8825 -31.0625 39.5625 C-30.31484375 39.55089844 -29.5671875 39.53929687 -28.796875 39.52734375 C-27.81203125 39.51832031 -26.8271875 39.50929688 -25.8125 39.5 C-24.35070312 39.48259766 -24.35070312 39.48259766 -22.859375 39.46484375 C-20.0625 39.5625 -20.0625 39.5625 -16.0625 40.5625 C-15.7325 37.5925 -15.4025 34.6225 -15.0625 31.5625 C-20.0125 31.5625 -24.9625 31.5625 -30.0625 31.5625 Z " fill="#262524" transform="translate(454.0625,128.4375)"/>
<path d="M0 0 C3.03822119 4.03269049 4.06324498 8.39533657 5.3125 13.1875 C7.25839143 20.19645126 9.69522999 26.0635833 14 32 C14.7425 33.0725 15.485 34.145 16.25 35.25 C26.30652803 45.30652803 40.23585205 49.20905356 54.0625 49.25 C66.29599486 49.23547707 75.07196523 46.49567267 86.2265625 41.55859375 C90.25756406 39.83820078 94.37833826 38.48329627 98.5625 37.1875 C99.56253052 36.8773999 99.56253052 36.8773999 100.58276367 36.56103516 C107.67871868 34.41664819 107.67871868 34.41664819 111 34 C113.3125 35.4375 113.3125 35.4375 115 37 C114.52651586 41.1666604 113.95303159 43.92884715 111 47 C110.34 47 109.68 47 109 47 C109 47.66 109 48.32 109 49 C89.50024844 67.24498494 63.73466314 72.91081365 37.71191406 72.140625 C16.22355472 71.02635646 -11.15417355 66.61932071 -28 52 C-30.36742713 48.4488593 -30.42326333 47.18763209 -30 43 C-29.0056972 40.54490709 -27.98801098 38.3389346 -26.74609375 36.01953125 C-26.40755875 35.36603195 -26.06902374 34.71253265 -25.7202301 34.03923035 C-25.00210245 32.65880554 -24.27808906 31.28142861 -23.54858398 29.90698242 C-22.45337044 27.84241705 -21.3765554 25.76911693 -20.30273438 23.69335938 C-7.39422494 -1.0820817 -7.39422494 -1.0820817 0 0 Z " fill="#03873F" transform="translate(287,157)"/>
<path d="M0 0 C13.32004437 10.18939092 17.48949913 29.04568475 20.07421875 44.78515625 C20.07421875 46.10515625 20.07421875 47.42515625 20.07421875 48.78515625 C19.43650543 48.8567244 18.79879211 48.92829254 18.14175415 49.00202942 C0.5535814 50.98396726 -17.00140779 53.17432523 -34.55078125 55.47265625 C-37.03383146 55.79639817 -39.5169043 56.11996657 -42 56.44335938 C-47.97552116 57.22197061 -53.95076562 58.00267552 -59.92578125 58.78515625 C-59.96054638 55.10419061 -59.98146429 51.42326782 -60 47.7421875 C-60.00994995 46.70646606 -60.0198999 45.67074463 -60.03015137 44.6036377 C-60.08909795 28.98279332 -56.16249082 16.47330923 -45.24609375 4.98046875 C-32.88415766 -6.71550445 -14.54973861 -9.17843552 0 0 Z M-41.92578125 16.78515625 C-46.66020932 23.07736388 -50.84297781 29.85362106 -51.92578125 37.78515625 C-51.54537257 40.4938525 -51.54537257 40.4938525 -50.92578125 42.78515625 C-45.83468035 44.33923986 -41.04145063 43.36216147 -35.8828125 42.640625 C-34.91800461 42.51077713 -33.95319672 42.38092926 -32.95915222 42.24714661 C-30.92541829 41.97116022 -28.89224529 41.6910126 -26.85961914 41.40698242 C-23.74066178 40.97298749 -20.6196657 40.55694361 -17.49804688 40.14257812 C-15.52198812 39.87216798 -13.54607113 39.60071939 -11.5703125 39.328125 C-10.63387405 39.20406784 -9.69743561 39.08001068 -8.73262024 38.95219421 C-7.86799667 38.82899307 -7.00337311 38.70579193 -6.11254883 38.57885742 C-5.3504158 38.47369308 -4.58828278 38.36852875 -3.80305481 38.26017761 C-1.69699191 37.89772935 -1.69699191 37.89772935 0.07421875 35.78515625 C1.23411313 28.16299318 -2.2707414 20.80246785 -6.41796875 14.52734375 C-9.85919284 10.26593154 -12.93369381 8.17503431 -18.50390625 7.44921875 C-27.60851248 7.31611047 -35.7003774 9.75061503 -41.92578125 16.78515625 Z " fill="#262524" transform="translate(109.92578125,70.21484375)"/>
<path d="M0 0 C0.66090637 -0.00189835 1.32181274 -0.00379669 2.00274658 -0.00575256 C4.16829622 -0.00943141 6.33350408 0.0011987 8.49902344 0.01245117 C10.01023316 0.0136443 11.52144364 0.01409585 13.03265381 0.01383972 C16.18978561 0.01539936 19.34680317 0.0236521 22.50390625 0.03710938 C26.55487234 0.05415683 30.60571381 0.05792176 34.65671158 0.05716419 C37.77245274 0.05743567 40.88816654 0.06291238 44.00389862 0.07016563 C45.49826602 0.07335091 46.99263653 0.07531938 48.48700714 0.07605934 C50.56951726 0.0782211 52.65189353 0.08696 54.734375 0.09765625 C55.91984924 0.10146805 57.10532349 0.10527985 58.32672119 0.10920715 C61.10839844 0.24291992 61.10839844 0.24291992 63.10839844 1.24291992 C63.10839844 1.90291992 63.10839844 2.56291992 63.10839844 3.24291992 C64.28402344 3.36666992 64.28402344 3.36666992 65.48339844 3.49291992 C66.34964844 3.74041992 67.21589844 3.98791992 68.10839844 4.24291992 C69.09839844 6.22291992 69.09839844 6.22291992 70.10839844 8.24291992 C28.52839844 8.73791992 28.52839844 8.73791992 -13.89160156 9.24291992 C-14.22160156 9.90291992 -14.55160156 10.56291992 -14.89160156 11.24291992 C-13.81910156 11.32541992 -12.74660156 11.40791992 -11.64160156 11.49291992 C-7.5530028 12.31063967 -6.29613003 12.91357281 -3.89160156 16.24291992 C-1.49506238 21.83484468 -4.77492432 27.41731961 -6.85644531 32.68432617 C-10.168743 40.78236358 -13.72354757 48.78223984 -17.23754883 56.79418945 C-19.52706142 62.0305508 -21.7228439 67.28912098 -23.82592773 72.6027832 C-25.96288885 77.89696361 -28.25438196 83.12636951 -30.51660156 88.36791992 C-34.91362688 98.58132174 -39.23957898 108.82217284 -43.50097656 119.09301758 C-46.57581571 126.50069955 -49.70404068 133.88302325 -52.89160156 141.24291992 C-55.6563451 139.86054815 -55.77152284 138.42119647 -56.83691406 135.55151367 C-57.19140625 134.60727539 -57.54589844 133.66303711 -57.91113281 132.69018555 C-58.2759375 131.69696289 -58.64074219 130.70374023 -59.01660156 129.68041992 C-59.38914063 128.68333008 -59.76167969 127.68624023 -60.14550781 126.65893555 C-61.06722234 124.18921328 -61.98226237 121.71721985 -62.89160156 119.24291992 C-61.90160156 119.24291992 -60.91160156 119.24291992 -59.89160156 119.24291992 C-59.63886475 118.41074951 -59.38612793 117.5785791 -59.12573242 116.72119141 C-57.74455841 112.82849385 -56.01861147 109.26422159 -54.14550781 105.59057617 C-53.77861343 104.86235153 -53.41171906 104.13412689 -53.03370667 103.38383484 C-52.24981294 101.82841939 -51.46421801 100.27386032 -50.67706299 98.72009277 C-48.61316812 94.64504117 -46.56266061 90.56327369 -44.51269531 86.48120117 C-43.90596985 85.27365677 -43.90596985 85.27365677 -43.2869873 84.04171753 C-40.12061721 77.72785372 -37.03715225 71.37791701 -34.01660156 64.99291992 C-28.8568512 54.09102758 -23.47216127 43.30637397 -18.0456543 32.53515625 C-17.66481689 31.77871826 -17.28397949 31.02228027 -16.89160156 30.24291992 C-16.517854 29.55415771 -16.14410645 28.86539551 -15.7590332 28.15576172 C-14.37596578 25.10585086 -14.60245004 22.53924728 -14.89160156 19.24291992 C-15.38660156 18.43854492 -15.88160156 17.63416992 -16.39160156 16.80541992 C-18.63720878 12.96917427 -18.45287238 10.66292758 -17.89160156 6.24291992 C-13.09964028 0.88719849 -6.89747489 -0.00826902 0 0 Z " fill="#252524" transform="translate(274.8916015625,23.757080078125)"/>
<path d="M0 0 C0.9311412 -0.00960754 1.86228241 -0.01921509 2.82164001 -0.02911377 C3.82997391 -0.03336365 4.8383078 -0.03761353 5.87719727 -0.04199219 C6.91046646 -0.04769226 7.94373566 -0.05339233 9.00831604 -0.05926514 C11.19645155 -0.06872172 13.38460135 -0.07525172 15.57275391 -0.07910156 C18.92643938 -0.08881746 22.27951483 -0.11983921 25.63305664 -0.15136719 C27.75609987 -0.15789602 29.87914748 -0.16314696 32.00219727 -0.16699219 C33.51166176 -0.18551239 33.51166176 -0.18551239 35.05162048 -0.20440674 C35.98591385 -0.20140564 36.92020721 -0.19840454 37.8828125 -0.1953125 C38.70506821 -0.19895813 39.52732391 -0.20260376 40.37449646 -0.20635986 C43.02312706 0.25026855 43.90197313 1.03850544 45.50610352 3.16113281 C45.90454102 5.68457031 45.90454102 5.68457031 45.88110352 8.53613281 C45.89270508 9.93992188 45.89270508 9.93992188 45.90454102 11.37207031 C45.42019528 14.76249049 44.66187956 16.49046159 42.50610352 19.16113281 C39.36938477 19.64941406 39.36938477 19.64941406 35.81860352 19.47363281 C34.63911133 19.42851562 33.45961914 19.38339844 32.24438477 19.33691406 C31.34075195 19.27890625 30.43711914 19.22089844 29.50610352 19.16113281 C29.42569824 20.00297119 29.34529297 20.84480957 29.26245117 21.7121582 C28.95824565 24.86422208 28.64816958 28.01564008 28.33422852 31.16674805 C28.20007192 32.52524483 28.06819159 33.88396856 27.9387207 35.24291992 C27.75117137 37.20713848 27.55448917 39.1704781 27.35766602 41.13378906 C27.24245605 42.31207275 27.12724609 43.49035645 27.00854492 44.7043457 C25.63013733 54.18776314 25.63013733 54.18776314 22.29125977 57.07910156 C18.99888473 58.35818696 16.47054293 58.52676168 12.94360352 58.47363281 C11.82856445 58.46976563 10.71352539 58.46589844 9.56469727 58.46191406 C6.63496384 58.1738049 4.93549727 57.77882324 2.50610352 56.16113281 C-1.63831981 47.87228616 3.55114725 29.37692434 4.50610352 20.16113281 C3.7468457 20.12375 2.98758789 20.08636719 2.20532227 20.04785156 C1.21145508 19.98210937 0.21758789 19.91636719 -0.80639648 19.84863281 C-1.7925293 19.790625 -2.77866211 19.73261719 -3.79467773 19.67285156 C-6.78538411 19.1058725 -7.77922989 18.64424531 -9.49389648 16.16113281 C-10.08652281 10.23486956 -9.27622383 6.40474974 -6.49389648 1.16113281 C-4.12079083 -0.02542002 -2.64789927 0.02200942 0 0 Z " fill="#272625" transform="translate(318.493896484375,128.8388671875)"/>
<path d="M0 0 C3.03822119 4.03269049 4.06324498 8.39533657 5.3125 13.1875 C7.25839143 20.19645126 9.69522999 26.0635833 14 32 C14.7425 33.0725 15.485 34.145 16.25 35.25 C26.30652803 45.30652803 40.23585205 49.20905356 54.0625 49.25 C66.29599486 49.23547707 75.07196523 46.49567267 86.2265625 41.55859375 C90.25756406 39.83820078 94.37833826 38.48329627 98.5625 37.1875 C99.56253052 36.8773999 99.56253052 36.8773999 100.58276367 36.56103516 C107.98943853 34.32274912 107.98943853 34.32274912 111 34 C111.99 34.66 112.98 35.32 114 36 C114 36.66 114 37.32 114 38 C107.60157744 41.5241876 101.29878847 43.93744057 94.2890625 45.96484375 C91.07529241 46.97630346 88.07972401 48.20140825 85 49.5625 C68.42958308 56.58974487 50.8758246 57.23040713 34 51 C18.2244696 44.27383873 9.11880281 33.85732383 2.25390625 18.23828125 C0.4503742 13.58056141 -0.88837417 8.86580079 -2 4 C-4.52707016 7.10054032 -6.11667817 10.21184962 -7.70703125 13.875 C-8.21169922 15.02613281 -8.71636719 16.17726562 -9.23632812 17.36328125 C-9.75646484 18.56339844 -10.27660156 19.76351562 -10.8125 21 C-14.29801136 29.01358378 -17.87440021 36.91523103 -21.9050293 44.671875 C-23.14186684 46.87284265 -23.14186684 46.87284265 -23 49 C0.04412159 66.62822204 36.63970214 71.18889287 64.640625 67.46484375 C75.96836822 65.64536848 85.82607669 61.9625945 95.6875 56.171875 C98 55 98 55 101 55 C76.45600884 72.88476875 47.2340443 74.46645712 18.16015625 69.90625 C2.70433496 67.28460822 -15.8380559 62.5545051 -28 52 C-30.36742713 48.4488593 -30.42326333 47.18763209 -30 43 C-29.0056972 40.54490709 -27.98801098 38.3389346 -26.74609375 36.01953125 C-26.40755875 35.36603195 -26.06902374 34.71253265 -25.7202301 34.03923035 C-25.00210245 32.65880554 -24.27808906 31.28142861 -23.54858398 29.90698242 C-22.45337044 27.84241705 -21.3765554 25.76911693 -20.30273438 23.69335938 C-7.39422494 -1.0820817 -7.39422494 -1.0820817 0 0 Z " fill="#1C1E1C" transform="translate(287,157)"/>
<path d="M0 0 C22.34169447 -0.39659813 44.32698134 0.60815179 65 10 C65.13123182 24.70402097 64.84840862 39.31950088 64 54 C62.515 54.495 62.515 54.495 61 55 C60.81566406 54.29617187 60.63132812 53.59234375 60.44140625 52.8671875 C56.36632846 38.99381154 48.63306558 26.66284863 35.9765625 19.22265625 C30.9527617 16.58671139 26.65337506 14.73840001 21 14 C19.14375 13.7215625 19.14375 13.7215625 17.25 13.4375 C9.75528695 12.53641809 2.44759295 12.8966529 -5 14 C-4.54327934 10.46041487 -3.41463745 7.53269021 -1.953125 4.30859375 C-1.58864258 3.50091553 -1.22416016 2.6932373 -0.84863281 1.86108398 C-0.56858398 1.24692627 -0.28853516 0.63276855 0 0 Z " fill="#04813C" transform="translate(338,44)"/>
<path d="M0 0 C5.42894764 3.7545993 10.12738399 7.62830683 14 13 C14 13.66 14 14.32 14 15 C15.485 15.495 15.485 15.495 17 16 C18.53886108 18.24910466 19.87867795 20.43313153 21.1875 22.8125 C21.78449707 23.8948291 21.78449707 23.8948291 22.39355469 24.99902344 C30.78812147 40.63281885 36.16492856 57.78812737 42.12060547 74.45605469 C44.63987389 81.50201559 47.17867845 88.53367897 49.87109375 95.515625 C50.297854 96.62454102 50.72461426 97.73345703 51.16430664 98.87597656 C51.94964762 100.90243817 52.74388817 102.92548187 53.54858398 104.94433594 C53.89091064 105.82895508 54.2332373 106.71357422 54.5859375 107.625 C54.8854834 108.38039063 55.1850293 109.13578125 55.49365234 109.9140625 C56.07460042 112.30732208 55.78603855 113.69341716 55 116 C53.36313669 112.25901504 51.72639431 108.51797725 50.08984375 104.77685547 C48.70747078 101.61683218 47.32460397 98.45702564 45.94140625 95.29736328 C44.15690081 91.22042657 42.37456712 87.1425448 40.59326172 83.06420898 C39.86507746 81.39790614 39.13623738 79.73188974 38.40673828 78.06616211 C37.32151064 75.58782877 36.23819738 73.10867331 35.15625 70.62890625 C34.80423523 69.82222 34.45222046 69.01553375 34.08953857 68.18440247 C32.05886721 63.5078289 30.09469487 58.80992843 28.18365479 54.08328247 C25.40732737 47.21851723 22.52635627 40.57748286 18.75 34.1875 C18.28601807 33.39762695 17.82203613 32.60775391 17.34399414 31.79394531 C8.65090245 17.45041723 -2.69714755 6.84397852 -19 2 C-19.58958496 1.82202881 -20.17916992 1.64405762 -20.78662109 1.46069336 C-23.52189151 0.89137334 -26.06532975 0.88808842 -28.859375 0.90234375 C-29.97441406 0.90556641 -31.08945313 0.90878906 -32.23828125 0.91210938 C-33.97658203 0.92467773 -33.97658203 0.92467773 -35.75 0.9375 C-36.92433594 0.94201172 -38.09867188 0.94652344 -39.30859375 0.95117188 C-42.20578072 0.96294906 -45.10286454 0.97939674 -48 1 C-48.86801323 4.5771436 -48.86801323 4.5771436 -48.44140625 8.1640625 C-46.34981599 10.82814766 -44.12868717 11.32246809 -40.9375 12.375 C-34.92212253 14.53521843 -30.08927197 17.17235427 -25 21 C-24.0925 21.639375 -23.185 22.27875 -22.25 22.9375 C-19.2769685 25.66277888 -17.25123033 28.65531494 -15 32 C-18.04844675 30.63021335 -20.20226664 29.03870982 -22.625 26.75 C-29.88832116 20.31296492 -37.82698711 16.38184955 -46.91040039 13.17944336 C-50.71576112 11.77862076 -53.11482182 10.66936467 -55 7 C-55.71800318 3.57696158 -55.69337624 0.42805214 -55 -3 C-44.58044909 -17.90434143 -11.76318494 -7.65143336 0 0 Z " fill="#222221" transform="translate(151,13)"/>
<path d="M0 0 C0.70003647 -0.00335861 1.40007294 -0.00671722 2.12132263 -0.01017761 C4.4202556 -0.01962483 6.71911527 -0.02162753 9.01806641 -0.02270508 C10.62700428 -0.02592183 12.23594187 -0.02928622 13.84487915 -0.03279114 C17.21218544 -0.03876672 20.57946613 -0.04063264 23.94677734 -0.04003906 C28.24605192 -0.03993749 32.54516116 -0.05359124 36.84439659 -0.07081127 C40.16625716 -0.081969 43.48807821 -0.08395712 46.8099556 -0.08342934 C48.39426875 -0.08460371 49.97858311 -0.08899476 51.56287766 -0.0967617 C53.78552352 -0.10663884 56.00781632 -0.10365357 58.23046875 -0.09765625 C60.1219313 -0.09979378 60.1219313 -0.09979378 62.05160522 -0.10197449 C67.29751761 0.24922546 72.11124914 0.83059215 76.30712891 4.20776367 C78.3465285 8.37523241 77.63582144 11.6989879 76.74462891 16.14526367 C75.09462891 16.47526367 73.44462891 16.80526367 71.74462891 17.14526367 C72.07462891 16.15526367 72.40462891 15.16526367 72.74462891 14.14526367 C72.78417125 11.81226542 72.78864623 9.47818178 72.74462891 7.14526367 C65.14686146 2.15536184 57.48408491 2.57795036 48.71337891 2.64916992 C47.15213962 2.64901469 45.59089994 2.64752175 44.02966309 2.64476013 C40.76829857 2.64338075 37.50737628 2.65585608 34.24609375 2.67871094 C30.08348066 2.70709447 25.92160142 2.70435219 21.75893402 2.69162083 C18.53824692 2.68463758 15.31772691 2.69248296 12.09706116 2.70487785 C10.5629999 2.70936671 9.02892055 2.7097518 7.49485779 2.70581245 C-3.73376096 2.62646083 -3.73376096 2.62646083 -14.25537109 6.14526367 C-16.6676748 8.12624908 -16.6676748 8.12624908 -16.56787109 11.95776367 C-16.49092062 15.8472605 -15.29115995 17.83710678 -13.25537109 21.14526367 C-12.73500885 26.70029956 -13.94978018 30.42357712 -16.56787109 35.20776367 C-17.30815933 36.62406211 -18.04770151 38.04075069 -18.78662109 39.45776367 C-19.18623047 40.2131543 -19.58583984 40.96854492 -19.99755859 41.74682617 C-22.24743517 46.0369635 -24.4038124 50.3738816 -26.56787109 54.70776367 C-27.03378662 55.63758057 -27.49970215 56.56739746 -27.97973633 57.52539062 C-31.73734251 65.0463849 -35.36524869 72.62502227 -38.97143555 80.21948242 C-44.14830586 91.08435942 -49.55602629 101.83320908 -54.96630859 112.58325195 C-56.40103083 115.43476241 -57.82979942 118.28917043 -59.25537109 121.14526367 C-59.91537109 121.14526367 -60.57537109 121.14526367 -61.25537109 121.14526367 C-60.63022142 116.8889044 -59.14177763 113.58423914 -57.19287109 109.76245117 C-56.88563614 109.15496033 -56.57840118 108.54746948 -56.26185608 107.92156982 C-55.60495295 106.62384526 -54.94541807 105.32745007 -54.28347778 104.0322876 C-52.55208444 100.6439186 -50.84007343 97.24577696 -49.12646484 93.84838867 C-48.78812119 93.17873077 -48.44977753 92.50907288 -48.10118103 91.81912231 C-45.42318123 86.50813318 -42.83736629 81.15837183 -40.31787109 75.77026367 C-37.75440455 70.30024482 -35.15112154 64.85770879 -32.44287109 59.45776367 C-32.1330127 58.83611328 -31.8231543 58.21446289 -31.50390625 57.57397461 C-29.39812446 53.36659539 -27.23539883 49.19194893 -25.05224609 45.02416992 C-23.93240082 42.85622886 -22.81260911 40.68826013 -21.69287109 38.52026367 C-21.14332764 37.48812744 -20.59378418 36.45599121 -20.02758789 35.39257812 C-19.52396729 34.41119873 -19.02034668 33.42981934 -18.50146484 32.41870117 C-18.04441162 31.54648926 -17.5873584 30.67427734 -17.11645508 29.77563477 C-16.04566398 26.504667 -16.38631098 24.44520659 -17.25537109 21.14526367 C-17.75037109 20.52651367 -18.24537109 19.90776367 -18.75537109 19.27026367 C-20.97309752 16.12848457 -21.50177047 12.91372467 -21.25537109 9.14526367 C-19.65065674 5.93583496 -18.32355395 3.89299167 -15.38037109 1.83276367 C-10.31675665 0.19453547 -5.28659089 0.01600101 0 0 Z " fill="#020202" transform="translate(274.25537109375,21.854736328125)"/>
<path d="M0 0 C5.42894764 3.7545993 10.12738399 7.62830683 14 13 C14 13.66 14 14.32 14 15 C15.485 15.495 15.485 15.495 17 16 C18.53886108 18.24910466 19.87867795 20.43313153 21.1875 22.8125 C21.78449707 23.8948291 21.78449707 23.8948291 22.39355469 24.99902344 C30.78812147 40.63281885 36.16492856 57.78812737 42.12060547 74.45605469 C44.63987389 81.50201559 47.17867845 88.53367897 49.87109375 95.515625 C50.297854 96.62454102 50.72461426 97.73345703 51.16430664 98.87597656 C51.94964762 100.90243817 52.74388817 102.92548187 53.54858398 104.94433594 C53.89091064 105.82895508 54.2332373 106.71357422 54.5859375 107.625 C54.8854834 108.38039063 55.1850293 109.13578125 55.49365234 109.9140625 C56.07460042 112.30732208 55.78603855 113.69341716 55 116 C51.31569653 107.9991753 47.87349344 100.02041185 45.1875 91.625 C42.36178213 82.7968316 39.04775302 74.18595534 35.67919922 65.55224609 C33.25575313 59.32379739 30.95476318 53.07995155 28.8125 46.75 C23.89926648 32.49545124 16.9209435 19.57966402 6 9 C6 8.34 6 7.68 6 7 C5.43539062 6.72929687 4.87078125 6.45859375 4.2890625 6.1796875 C1.89423493 4.94549309 -0.34447261 3.5586866 -2.625 2.125 C-13.23289476 -4.2553367 -22.89615724 -6.16751202 -35.125 -6.25 C-36.28322266 -6.2809375 -36.28322266 -6.2809375 -37.46484375 -6.3125 C-42.38435462 -6.34602307 -45.75649545 -5.76021268 -50 -3 C-52.34522935 -0.11487022 -52.34522935 -0.11487022 -51.875 3.5 C-50.870189 7.51924401 -50.40254217 7.91971877 -47 10 C-44.95772542 10.82292456 -42.89222942 11.58943995 -40.8125 12.3125 C-34.88981246 14.51938245 -30.03492522 17.21322851 -25 21 C-24.0925 21.639375 -23.185 22.27875 -22.25 22.9375 C-19.2769685 25.66277888 -17.25123033 28.65531494 -15 32 C-18.04844675 30.63021335 -20.20226664 29.03870982 -22.625 26.75 C-29.88832116 20.31296492 -37.82698711 16.38184955 -46.91040039 13.17944336 C-50.71576112 11.77862076 -53.11482182 10.66936467 -55 7 C-55.71800318 3.57696158 -55.69337624 0.42805214 -55 -3 C-44.58044909 -17.90434143 -11.76318494 -7.65143336 0 0 Z " fill="#020202" transform="translate(151,13)"/>
<path d="M0 0 C0 0.66 0 1.32 0 2 C-6.39842256 5.5241876 -12.70121153 7.93744057 -19.7109375 9.96484375 C-22.92470759 10.97630346 -25.92027599 12.20140825 -29 13.5625 C-45.97478404 20.7612304 -62.73662421 20.76059341 -80 15 C-83.45853699 13.52195695 -86.75633425 11.90253472 -90 10 C-86.3732057 8.67353357 -84.47187589 9.34017682 -81 10.875 C-73.79694485 14.01535636 -67.76215168 14.21362742 -59.9375 14.25 C-58.85533203 14.270625 -57.77316406 14.29125 -56.65820312 14.3125 C-44.71685755 14.45377605 -44.71685755 14.45377605 -34.30126953 9.45751953 C-33.87185059 8.97653809 -33.44243164 8.49555664 -33 8 C-25.4102085 3.56825967 -16.35677026 1.52581034 -8 -1 C-4.37673261 -2.2077558 -3.35853631 -1.54311128 0 0 Z " fill="#202120" transform="translate(401,193)"/>
<path d="M0 0 C0.99 1.485 0.99 1.485 2 3 C0.47305074 6.88677994 -1.47907299 8.77247475 -5 11 C-15.02885322 14.76828644 -26.07114709 15.5287536 -36.62109375 16.8828125 C-38.61370786 17.14444201 -40.60622458 17.40681414 -42.59864807 17.66989136 C-47.81250437 18.35662406 -53.02744949 19.03468073 -58.24273682 19.71044922 C-66.61379565 20.79667339 -74.98309624 21.89636445 -83.35243416 22.99575424 C-86.27030328 23.37779902 -89.18862338 23.75622979 -92.10704041 24.13406372 C-93.89094905 24.36681562 -95.67484945 24.59963077 -97.45874023 24.83251953 C-98.67359604 24.98837021 -98.67359604 24.98837021 -99.91299438 25.14736938 C-103.33789497 25.59680316 -106.66123525 26.11787464 -110 27 C-109.67 25.68 -109.34 24.36 -109 23 C-101.88339926 21.47813388 -94.77038068 20.34699616 -87.5546875 19.4140625 C-86.47794769 19.27232101 -85.40120789 19.13057953 -84.2918396 18.98454285 C-82.00062864 18.68352173 -79.7092106 18.38407313 -77.41760254 18.08609009 C-73.84393548 17.62095677 -70.27104214 17.15021049 -66.69824219 16.6784668 C-56.37620264 15.32028291 -46.05413988 13.980548 -35.7109375 12.79296875 C-34.23714127 12.62093663 -32.76334567 12.44889913 -31.28955078 12.27685547 C-28.68744486 11.97401255 -26.0857089 11.69080813 -23.47998047 11.41845703 C-15.06342271 10.44927765 -6.57716897 8.97146121 -1 2 C-0.67 1.34 -0.34 0.68 0 0 Z " fill="#020202" transform="translate(169,129)"/>
<path d="M0 0 C3.76366173 3.05411895 5.84323509 5.56298836 6.375 10.4375 C6.189375 11.7059375 6.189375 11.7059375 6 13 C5.01 12.67 4.02 12.34 3 12 C2.566875 11.071875 2.13375 10.14375 1.6875 9.1875 C-0.36533841 5.30991634 -2.12694416 4.01100976 -6 2 C-12.03666258 0.29151059 -16.4072146 1.65330446 -22 4 C-23.06154297 4.39251953 -23.06154297 4.39251953 -24.14453125 4.79296875 C-26.6981428 6.45416027 -27.00905283 8.15462473 -28 11 C-34.97250767 23.74752096 -43.39654709 32.29140317 -57.171875 37.109375 C-61.89487739 38.20819596 -66.29435912 38.33033841 -71.125 38.3125 C-72.00542969 38.32861328 -72.88585937 38.34472656 -73.79296875 38.36132812 C-78.70309403 38.36503109 -81.98342647 38.1582601 -86 35 C-83 34 -83 34 -80.4375 34.4375 C-68.40728624 36.40608043 -56.35325555 34.5782418 -46 28 C-44.17820818 26.42624557 -42.62802186 24.78064891 -41 23 C-40.34 23 -39.68 23 -39 23 C-38.71898437 22.41863281 -38.43796875 21.83726562 -38.1484375 21.23828125 C-37.07012069 19.1366638 -35.89690477 17.1763702 -34.625 15.1875 C-32.98120165 12.60918072 -31.47650206 10.02217758 -30.0625 7.3125 C-27.1495912 2.63419193 -24.17587635 -0.02779993 -19.0625 -2.3125 C-12.29478113 -3.83178383 -6.16462428 -3.17165452 0 0 Z " fill="#020202" transform="translate(173,166)"/>
<path d="M0 0 C0.495 0.99 0.495 0.99 1 2 C0.31005859 3.97338867 0.31005859 3.97338867 -0.8515625 6.41796875 C-1.2839624 7.330625 -1.7163623 8.24328125 -2.16186523 9.18359375 C-2.88611694 10.67052734 -2.88611694 10.67052734 -3.625 12.1875 C-4.36955444 13.73050781 -4.36955444 13.73050781 -5.12915039 15.3046875 C-9.14341926 23.50425768 -13.52935361 31.44966717 -18.08374023 39.35888672 C-22.49781372 47.03797743 -26.62309989 54.83991753 -30.68237305 62.71118164 C-34.15487283 69.42837231 -37.77577613 76.04458001 -41.48632812 82.63256836 C-44.55859453 88.1204478 -47.38758796 93.70297966 -50.15527344 99.34936523 C-53.14822975 105.40987107 -56.49601866 111.2184308 -60 117 C-61 115 -61 115 -60.45849609 113.26342773 C-60.14992676 112.57708252 -59.84135742 111.8907373 -59.5234375 111.18359375 C-59.01103516 110.03600586 -59.01103516 110.03600586 -58.48828125 108.86523438 C-58.12089844 108.06408203 -57.75351562 107.26292969 -57.375 106.4375 C-57.03082031 105.66341797 -56.68664062 104.88933594 -56.33203125 104.09179688 C-54.20031606 99.36819919 -51.86065902 94.82020174 -49.30810547 90.3112793 C-47.93834481 87.89106203 -46.60259688 85.45445378 -45.2734375 83.01171875 C-44.80437988 82.15046387 -44.33532227 81.28920898 -43.85205078 80.40185547 C-43.36462402 79.50611816 -42.87719727 78.61038086 -42.375 77.6875 C-39.25958026 71.9644089 -36.14016733 66.24392211 -32.984375 60.54296875 C-28.67536139 52.75723245 -24.43155037 44.98132273 -20.5234375 36.984375 C-18.26392491 32.55804776 -15.78834859 28.25923522 -13.3269043 23.94287109 C-10.45690556 18.88461245 -7.84059717 13.73258586 -5.28515625 8.5078125 C-3.7338991 5.48073928 -1.98931911 2.75444185 0 0 Z " fill="#030303" transform="translate(331,51)"/>
<path d="M0 0 C2.125 -0.4375 2.125 -0.4375 5 0 C11.77107503 5.35105418 15.15208709 14.68910532 16.2734375 23.03515625 C16.375 25.0625 16.375 25.0625 16 29 C11.66757185 32.79764405 6.122123 32.96312548 0.625 33.640625 C-0.87812744 33.83757965 -0.87812744 33.83757965 -2.41162109 34.03851318 C-4.52565346 34.31280897 -6.64042962 34.58142444 -8.75585938 34.84472656 C-11.99038436 35.24879877 -15.22165954 35.67378177 -18.453125 36.1015625 C-20.5102566 36.36583231 -22.56754384 36.62889401 -24.625 36.890625 C-25.58970215 37.0176178 -26.5544043 37.1446106 -27.54833984 37.27545166 C-28.45277832 37.38596863 -29.3572168 37.4964856 -30.2890625 37.61035156 C-31.47556396 37.75999359 -31.47556396 37.75999359 -32.68603516 37.91265869 C-35.27102601 38.01022996 -37.49061971 37.59658197 -40 37 C-39.34 35.68 -38.68 34.36 -38 33 C-37.38286133 33.18933105 -36.76572266 33.37866211 -36.12988281 33.57373047 C-31.60429388 34.19008603 -27.42249875 33.46282177 -22.921875 32.8203125 C-21.95469543 32.68809296 -20.98751587 32.55587341 -19.99102783 32.41964722 C-17.95311125 32.13931382 -15.91574226 31.85497421 -13.87890625 31.56689453 C-10.74865031 31.12480938 -7.61676773 30.69618474 -4.484375 30.26953125 C-2.50509904 29.99558018 -0.52592834 29.7208672 1.453125 29.4453125 C2.39472473 29.31609406 3.33632446 29.18687561 4.30645752 29.05374146 C5.17115662 28.93046478 6.03585571 28.80718811 6.92675781 28.68017578 C7.69111145 28.57279083 8.45546509 28.46540588 9.24298096 28.35476685 C11.01979415 28.16459534 11.01979415 28.16459534 12 27 C13.00491098 19.46316767 9.81110777 12.16075894 5.625 5.96484375 C3.87683337 3.84727286 1.94056524 1.94056524 0 0 Z " fill="#030303" transform="translate(97,79)"/>
<path d="M0 0 C0.33 0 0.66 0 1 0 C0.04460174 17.19716861 -14.33599614 32.32998662 -26.58203125 43.43457031 C-32.39746657 48.43829785 -37.16015054 52.15076634 -45 52 C-44.06405234 48.59130173 -43.4323385 47.2697276 -40.3828125 45.3671875 C-39.30773437 44.87476563 -38.23265625 44.38234375 -37.125 43.875 C-29.52514837 40.01622578 -23.96114895 35.03148699 -18 29 C-17.33226562 28.34257812 -16.66453125 27.68515625 -15.9765625 27.0078125 C-8.77161011 19.41164098 -3.96230457 9.60002806 0 0 Z " fill="#1A1918" transform="translate(178,182)"/>
<path d="M0 0 C14.04273435 0.25574516 31.69582293 2.73195122 44 10 C48.77009461 17.15514192 45.60219169 28.5799368 44.5 36.6875 C44.35691406 37.78255859 44.21382813 38.87761719 44.06640625 40.00585938 C43.71719996 42.67146741 43.36164741 45.33605646 43 48 C42.67 48 42.34 48 42 48 C42.33 36.78 42.66 25.56 43 14 C35.71298359 11.81389508 28.50556447 9.84812044 21.125 8.0625 C18 7 18 7 16 4 C12.72636037 3.26720098 12.72636037 3.26720098 9 2.9375 C2.20665901 2.20665901 2.20665901 2.20665901 0 0 Z " fill="#151816" transform="translate(360,40)"/>
<path d="M0 0 C5.35673947 0.93345163 10.48338461 2.59699529 15.67382812 4.18359375 C31.42533776 8.91604731 48.90692423 8.32492478 64.85546875 4.65625 C67.68856268 4.06499561 70.12074934 3.86986438 73 4 C70 6 70 6 68 6 C68 6.66 68 7.32 68 8 C66.68911318 8.31919939 65.37614752 8.62985947 64.0625 8.9375 C63.33160156 9.11152344 62.60070312 9.28554687 61.84765625 9.46484375 C43.8724256 12.84290493 25.28447656 11.99612309 8 6 C8 5.34 8 4.68 8 4 C6.865625 3.71125 5.73125 3.4225 4.5625 3.125 C3.386875 2.75375 2.21125 2.3825 1 2 C0.67 1.34 0.34 0.68 0 0 Z " fill="#191919" transform="translate(46,237)"/>
<path d="M0 0 C3.24268258 1.62134129 3.62126102 5.11428054 4.75 8.375 C8.82915807 19.62828052 14.08708655 28.95222863 22 38 C22.54269531 38.62648437 23.08539062 39.25296875 23.64453125 39.8984375 C28.66520825 45.29780303 34.80693037 49.08484104 41 53 C40.505 53.99 40.505 53.99 40 55 C32.13202118 53.94724227 26.22763786 47.6197107 21 42 C20.34515625 41.3503125 19.6903125 40.700625 19.015625 40.03125 C8.70533226 29.36542992 0 15.2773411 0 0 Z " fill="#1B1B1B" transform="translate(4,182)"/>
<path d="M0 0 C2.74258288 2.74258288 2.88400694 5.23217056 3.75 9 C5.43536116 15.80242009 7.88624229 21.26665263 12 27 C12.7425 28.0725 13.485 29.145 14.25 30.25 C24.31101651 40.31101651 38.23302021 44.20056594 52.0625 44.25 C53.00464355 44.25394775 53.94678711 44.25789551 54.91748047 44.26196289 C60.96953692 44.21129403 66.30542966 43.64608143 72.0390625 41.55859375 C74 41 74 41 77 42 C75.75108386 42.48198463 74.50081192 42.96045677 73.25 43.4375 C72.55390625 43.70433594 71.8578125 43.97117188 71.140625 44.24609375 C58.09539947 48.84048887 40.48677059 47.64583357 28 42 C26.37910492 41.50712595 24.75419033 41.02721987 23.125 40.5625 C14.34924439 37.55321935 9.96702292 30.44523904 5 23 C4.55011719 22.35160156 4.10023438 21.70320313 3.63671875 21.03515625 C-0.16808342 14.71226682 0.18685238 7.17513123 0 0 Z " fill="#101110" transform="translate(289,162)"/>
<path d="M0 0 C0.99 0.33 1.98 0.66 3 1 C4.21314101 3.85318482 5.22969208 6.62258885 6.1875 9.5625 C6.48358154 10.43841797 6.77966309 11.31433594 7.0847168 12.21679688 C8.06940374 15.14038236 9.0358001 18.06959769 10 21 C11.08151837 24.26476579 12.16461277 27.5289995 13.24926758 30.79272461 C13.94876431 32.9027794 14.64403457 35.01424081 15.3347168 37.12719727 C15.65351807 38.09584717 15.97231934 39.06449707 16.30078125 40.0625 C16.72097534 41.34833984 16.72097534 41.34833984 17.1496582 42.66015625 C17.96162125 44.89439508 18.79907954 46.94766994 20 49 C24.27421349 50.56436214 28.16729371 50.30840974 32.375 48.75 C34.55685352 47.29543099 36.30082018 45.98237646 38 44 C38.33 44.99 38.66 45.98 39 47 C35.09220801 50.99327494 31.74699312 53.96524448 25.984375 54.2109375 C22.2257608 53.81139977 19.55634593 52.70795856 17 50 C15.96582031 47.78442383 15.96582031 47.78442383 15.078125 45.14453125 C14.74135742 44.16274902 14.40458984 43.1809668 14.05761719 42.16943359 C13.70860352 41.12352051 13.35958984 40.07760742 13 39 C12.26144498 36.8629256 11.52184098 34.72621346 10.78125 32.58984375 C9.63637859 29.2555533 8.49416062 25.92039041 7.35546875 22.58398438 C5.31485399 16.64796928 3.17623583 10.8020802 0.71679688 5.02563477 C0 3 0 3 0 0 Z " fill="#020202" transform="translate(195,190)"/>
<path d="M0 0 C0.33 0.99 0.66 1.98 1 3 C0.03125 4.76953125 0.03125 4.76953125 -1.5 6.8125 C-12.17893504 22.2376284 -18.0318645 40.40451285 -20 59 C-20.33 59 -20.66 59 -21 59 C-22.1231398 41.40414306 -17.93194012 28.20058053 -9.9375 12.625 C-9.5264502 11.82199463 -9.11540039 11.01898926 -8.69189453 10.19165039 C-6.34075225 5.82758228 -4.22084189 2.81389459 0 0 Z " fill="#1C1C1C" transform="translate(21,76)"/>
<path d="M0 0 C-1.03898437 0.50789063 -2.07796875 1.01578125 -3.1484375 1.5390625 C-17.62772745 8.65953995 -30.71661554 16.2448364 -42 28 C-42.66 27.67 -43.32 27.34 -44 27 C-36.44110229 19.26843711 -36.44110229 19.26843711 -32.8125 16.3125 C-29.99544882 14.10458723 -29.99544882 14.10458723 -27.8125 11.625 C-20.71969313 5.00504692 -10.12361532 -2.90181215 0 0 Z " fill="#141414" transform="translate(68,45)"/>
<path d="M0 0 C1.10666016 -0.00773437 2.21332031 -0.01546875 3.35351562 -0.0234375 C12.26696016 -0.00237797 20.45355591 1.13235761 28.875 4.125 C29.77089844 4.43179688 30.66679687 4.73859375 31.58984375 5.0546875 C34.23788135 6.40293959 35.36218852 7.76485515 36.9375 10.25 C36.2775 10.58 35.6175 10.91 34.9375 11.25 C34.9375 10.59 34.9375 9.93 34.9375 9.25 C34.38835937 9.12496094 33.83921875 8.99992187 33.2734375 8.87109375 C30.63585778 8.16979747 28.12791135 7.24377946 25.5625 6.3125 C11.4589318 1.58264481 -2.04797732 1.62856562 -16.546875 3.8125 C-19.76666359 4.2131848 -22.82309155 4.32949469 -26.0625 4.25 C-20.25088249 -1.56161751 -7.65416204 -0.05368202 0 0 Z " fill="#080808" transform="translate(98.0625,38.75)"/>
<path d="M0 0 C2.62274814 2.62274814 3.32159556 5.14922745 4.609375 8.6328125 C4.8586676 9.30230927 5.10796021 9.97180603 5.36480713 10.66159058 C6.16503766 12.81418515 6.95766702 14.96948756 7.75 17.125 C8.26771952 18.52232435 8.78594389 19.91946176 9.3046875 21.31640625 C10.08377978 23.41513427 10.86174362 25.51423973 11.63586426 27.61480713 C12.96958463 31.23334013 14.31767908 34.84542995 15.69335938 38.44824219 C15.96746643 39.16881805 16.24157349 39.88939392 16.52398682 40.63180542 C17.04495399 41.99903285 17.56897388 43.36510255 18.09661865 44.72976685 C19.3892347 48.12962039 20.41532644 51.40708668 21 55 C18.44727153 52.73437242 17.25641238 50.69385942 16.00708008 47.53198242 C15.46685966 46.17993965 15.46685966 46.17993965 14.91572571 44.80058289 C14.53748154 43.82869522 14.15923737 42.85680756 13.76953125 41.85546875 C13.1766053 40.35165398 13.1766053 40.35165398 12.57170105 38.81745911 C11.73823884 36.69651584 10.90885596 34.57396567 10.08325195 32.44995117 C8.81946049 29.20536993 7.53660228 25.96879218 6.25195312 22.73242188 C5.44414335 20.66972832 4.63746506 18.60659122 3.83203125 16.54296875 C3.25555595 15.09424629 3.25555595 15.09424629 2.66743469 13.61625671 C0.86355627 8.93119763 -0.52317839 5.11392208 0 0 Z " fill="#040404" transform="translate(173,131)"/>
<path d="M0 0 C0.33 0 0.66 0 1 0 C0.20241606 14.35651088 -9.80859405 25.65966831 -19 36 C-19 30.12518551 -15.31488976 25.95628895 -11.75 21.5625 C-6.61338973 14.87902183 -3.2833074 7.72791324 0 0 Z " fill="#030202" transform="translate(178,182)"/>
<path d="M0 0 C0.99 0 1.98 0 3 0 C3.268125 0.73863281 3.53625 1.47726563 3.8125 2.23828125 C8.29272504 13.83675856 13.90752857 22.91454693 25 29 C24.34 29.33 23.68 29.66 23 30 C11.68357991 25.37055542 5.34911724 15.79231631 0.62890625 4.91015625 C0 3 0 3 0 0 Z " fill="#181818" transform="translate(61,172)"/>
<path d="M0 0 C0.66 0 1.32 0 2 0 C1.34 2.64 0.68 5.28 0 8 C0.94875 7.835 1.8975 7.67 2.875 7.5 C10.30256681 6.44963702 17.60934872 6.9050887 25 8 C25.33 8.99 25.66 9.98 26 11 C16.41964399 10.0940106 16.41964399 10.0940106 11.9375 9.375 C10.968125 9.25125 9.99875 9.1275 9 9 C8.67 9.33 8.34 9.66 8 10 C5.81707226 10.23481693 3.62796826 10.41363323 1.4375 10.5625 C0.23996094 10.64628906 -0.95757812 10.73007812 -2.19140625 10.81640625 C-3.11824219 10.87699219 -4.04507812 10.93757813 -5 11 C-4.34 8.69 -3.68 6.38 -3 4 C-2.34 4 -1.68 4 -1 4 C-0.67 2.68 -0.34 1.36 0 0 Z " fill="#252D27" transform="translate(334,49)"/>
<path d="M0 0 C0.71994141 -0.02384766 1.43988281 -0.04769531 2.18164062 -0.07226562 C4.28515625 -0.06640625 4.28515625 -0.06640625 7.9375 0.5625 C9.953125 2.859375 9.953125 2.859375 10.9375 5.5625 C10.625 9.375 10.625 9.375 9.9375 12.5625 C10.5975 12.8925 11.2575 13.2225 11.9375 13.5625 C10.9475 13.5625 9.9575 13.5625 8.9375 13.5625 C8.88851563 12.85222656 8.83953125 12.14195312 8.7890625 11.41015625 C8.71429688 10.49105469 8.63953125 9.57195312 8.5625 8.625 C8.49289062 7.70847656 8.42328125 6.79195312 8.3515625 5.84765625 C8.21492188 5.09355469 8.07828125 4.33945313 7.9375 3.5625 C3.70287492 1.44518746 -1.47307256 1.95057634 -6.0625 2.5625 C-9.48576475 5.01367934 -9.48576475 5.01367934 -11.0625 8.5625 C-11.51733593 11.48644527 -11.74837557 14.31164705 -11.82421875 17.26953125 C-11.90285156 18.02621094 -11.98148437 18.78289062 -12.0625 19.5625 C-12.7225 19.8925 -13.3825 20.2225 -14.0625 20.5625 C-14.7225 18.5825 -15.3825 16.6025 -16.0625 14.5625 C-15.4025 14.5625 -14.7425 14.5625 -14.0625 14.5625 C-13.96453125 13.88703125 -13.8665625 13.2115625 -13.765625 12.515625 C-13.61609375 11.62359375 -13.4665625 10.7315625 -13.3125 9.8125 C-13.17328125 8.93078125 -13.0340625 8.0490625 -12.890625 7.140625 C-10.74156659 0.45016015 -6.41298172 -0.09812843 0 0 Z " fill="#0E0E0E" transform="translate(454.0625,128.4375)"/>
<path d="M0 0 C0.94082428 0.00007553 1.88164856 0.00015106 2.85098267 0.00022888 C3.86872772 0.00539017 4.88647278 0.01055145 5.93505859 0.01586914 C6.97544281 0.01728409 8.01582703 0.01869904 9.08773804 0.02015686 C12.4196863 0.02576673 15.75156804 0.03832092 19.08349609 0.05102539 C21.33870346 0.05603912 23.59391187 0.06060225 25.84912109 0.06469727 C31.38560223 0.07573936 36.92204441 0.09248712 42.45849609 0.11352539 C42.45849609 0.44352539 42.45849609 0.77352539 42.45849609 1.11352539 C41.90361511 1.11717102 41.34873413 1.12081665 40.77703857 1.12457275 C35.00164915 1.16638379 29.2270555 1.2357188 23.45214844 1.32104492 C21.29695596 1.34927038 19.14165966 1.37047704 16.98632812 1.38452148 C13.88796779 1.40592886 10.79085782 1.45256859 7.69287109 1.50415039 C6.72919617 1.50537903 5.76552124 1.50660767 4.77264404 1.50787354 C-0.55028709 1.56711989 -0.55028709 1.56711989 -5.14526367 4.00854492 C-6.73484095 6.40500152 -7.09055315 7.88357525 -7.22900391 10.73852539 C-7.47571443 14.98194644 -7.47571443 14.98194644 -8.54150391 17.11352539 C-9.54150391 16.11352539 -9.54150391 16.11352539 -9.79150391 12.48852539 C-9.74343307 8.04197297 -8.61903259 5.0288679 -6.54150391 1.11352539 C-4.14568045 -0.08438634 -2.67372853 -0.00714901 0 0 Z " fill="#0D0D0C" transform="translate(318.54150390625,128.886474609375)"/>
<path d="M0 0 C0.33 0.66 0.66 1.32 1 2 C-2.81516464 3.30062431 -6.27561763 2.89369853 -10.25 2.5625 C-11.51328125 2.46066406 -12.7765625 2.35882813 -14.078125 2.25390625 C-15.04234375 2.17011719 -16.0065625 2.08632812 -17 2 C-17 2.66 -17 3.32 -17 4 C-19.64 4.33 -22.28 4.66 -25 5 C-25 4.34 -25 3.68 -25 3 C-16.99476628 -1.08777892 -8.75648355 -0.26866484 0 0 Z " fill="#111111" transform="translate(100,75)"/>
<path d="M0 0 C0.33 0.66 0.66 1.32 1 2 C-1.79362807 8.83957216 -7.42772989 13.43535172 -13 18 C-13.66 17.67 -14.32 17.34 -15 17 C-14.360625 16.4225 -13.72125 15.845 -13.0625 15.25 C-10.87993467 13.25901735 -10.87993467 13.25901735 -10.6171875 11.0859375 C-9.78088457 8.25944533 -8.32058624 7.22883572 -6.0625 5.375 C-5.35222656 4.78460938 -4.64195312 4.19421875 -3.91015625 3.5859375 C-3.27980469 3.06257812 -2.64945313 2.53921875 -2 2 C-1.34 1.34 -0.68 0.68 0 0 Z " fill="#252423" transform="translate(160,211)"/>
<path d="M0 0 C6.78568902 0.61688082 13.38713373 2.41887859 20 4 C16.96791436 5.01069521 15.97511238 4.99644463 12.9375 4.5625 C6.97572438 3.85381939 1.06134932 3.97054112 -4.92993164 4.12524414 C-6.95348302 4.15611004 -8.97802611 4.08564146 -11 4 C-11.66 3.34 -12.32 2.68 -13 2 C-12.14535156 1.93941406 -11.29070312 1.87882812 -10.41015625 1.81640625 C-8.75306641 1.69072266 -8.75306641 1.69072266 -7.0625 1.5625 C-5.96035156 1.48128906 -4.85820312 1.40007813 -3.72265625 1.31640625 C-1.08890097 1.29581916 -1.08890097 1.29581916 0 0 Z " fill="#101010" transform="translate(343,57)"/>
<path d="M0 0 C2.76341591 0.23949605 5.49797575 0.5382395 8.25 0.875 C18.81643309 2.09000197 29.37580709 2.59828922 40 3 C36.90204173 4.81739189 34.82347463 5.21246962 31.25390625 5.01171875 C29.88250488 4.94223022 29.88250488 4.94223022 28.48339844 4.87133789 C27.51950195 4.81067139 26.55560547 4.75000488 25.5625 4.6875 C24.57926758 4.63263428 23.59603516 4.57776855 22.58300781 4.52124023 C20.6222425 4.40921032 18.66177175 4.29188372 16.70166016 4.16894531 C14.37835816 4.02366021 12.05510594 3.89480182 9.73046875 3.7734375 C1.26008065 3.26008065 1.26008065 3.26008065 -1 1 C-0.67 0.67 -0.34 0.34 0 0 Z " fill="#252524" transform="translate(305,223)"/>
<path d="M0 0 C4.96539506 0.47289477 8.26824778 1.62365276 12 5 C12.4712229 8.83710078 12.21881093 11.3435672 11 15 C11.66 15.66 12.32 16.32 13 17 C11.35 17 9.7 17 8 17 C7.67 16.01 7.34 15.02 7 14 C7.66 13.01 8.32 12.02 9 11 C9.15474612 8.43810155 9.15474612 8.43810155 8 6 C5.03292954 4.14083176 5.03292954 4.14083176 2 3 C2 2.34 2 1.68 2 1 C1.34 0.67 0.68 0.34 0 0 Z " fill="#1A1A1B" transform="translate(336,24)"/>
<path d="M0 0 C-9.18025053 7.47116134 -18.0017517 13.30113298 -30 15 C-27.48566518 12.48566518 -25.22181809 11.87946422 -21.875 10.6875 C-12.63270163 7.5550508 -12.63270163 7.5550508 -6 1 C-6.66 0.67 -7.32 0.34 -8 0 C-4.90645403 -0.99435406 -3.09720845 -0.87840996 0 0 Z " fill="#017737" transform="translate(391,201)"/>
<path d="M0 0 C2.64559961 2.41554747 3.84536156 4.23424482 4.16796875 7.91796875 C4.23785702 16.03898607 3.11533689 23.97355775 2 32 C1.67 32 1.34 32 1 32 C1.00523682 31.2793335 1.01047363 30.55866699 1.01586914 29.81616211 C1.03676875 26.52328375 1.04970131 23.23041941 1.0625 19.9375 C1.07087891 18.80376953 1.07925781 17.67003906 1.08789062 16.50195312 C1.10424847 10.89121133 1.01812097 5.52350669 0 0 Z " fill="#101010" transform="translate(486,145)"/>
<path d="M0 0 C0.66 0 1.32 0 2 0 C1.41509121 6.14154225 0.45933748 12.00679849 -1 18 C-2.32 18.33 -3.64 18.66 -5 19 C-4.35720991 16.20760027 -3.71091335 13.41609416 -3.0625 10.625 C-2.88009766 9.8309375 -2.69769531 9.036875 -2.50976562 8.21875 C-2.33251953 7.45820312 -2.15527344 6.69765625 -1.97265625 5.9140625 C-1.81031494 5.2123291 -1.64797363 4.5105957 -1.48071289 3.78759766 C-1 2 -1 2 0 0 Z " fill="#171717" transform="translate(59,96)"/>
<path d="M0 0 C0.66 0.33 1.32 0.66 2 1 C2.67138538 3.61751567 3.21616601 6.15863423 3.6875 8.8125 C3.82994141 9.53759766 3.97238281 10.26269531 4.11914062 11.00976562 C4.79477553 14.68374052 5.07608489 17.43203331 4 21 C3.54625 20.071875 3.0925 19.14375 2.625 18.1875 C1.0578367 14.96078611 1.0578367 14.96078611 -1 12 C-0.9765625 9.08203125 -0.9765625 9.08203125 -0.625 5.8125 C-0.51414063 4.72582031 -0.40328125 3.63914063 -0.2890625 2.51953125 C-0.19367187 1.68808594 -0.09828125 0.85664063 0 0 Z " fill="#121212" transform="translate(56,150)"/>
<path d="M0 0 C0.66 0.33 1.32 0.66 2 1 C0.05106191 4.81737464 -1.91069748 8.62801171 -3.875 12.4375 C-4.43058594 13.52611328 -4.98617188 14.61472656 -5.55859375 15.73632812 C-6.36103516 17.28803711 -6.36103516 17.28803711 -7.1796875 18.87109375 C-7.67194824 19.82943115 -8.16420898 20.78776855 -8.67138672 21.77514648 C-10 24 -10 24 -12 25 C-10.36305581 19.72256013 -8.23303787 14.732062 -6 9.6875 C-5.64421875 8.86443359 -5.2884375 8.04136719 -4.921875 7.19335938 C-4.57640625 6.41154297 -4.2309375 5.62972656 -3.875 4.82421875 C-3.56304687 4.11354248 -3.25109375 3.40286621 -2.9296875 2.6706543 C-2 1 -2 1 0 0 Z " fill="#1C1C1D" transform="translate(295,114)"/>
<path d="M0 0 C0.33 0 0.66 0 1 0 C1.50505263 2.89503383 2.0042022 5.79087953 2.5 8.6875 C2.64308594 9.50412109 2.78617187 10.32074219 2.93359375 11.16210938 C3.61165962 15.14978248 4.19858392 18.93730404 4 23 C3.67 22.34 3.34 21.68 3 21 C2.34 21 1.68 21 1 21 C0.07811539 18.23434618 -0.11785222 16.61716298 -0.09765625 13.76953125 C-0.09282227 12.56586914 -0.09282227 12.56586914 -0.08789062 11.33789062 C-0.07951172 10.50451172 -0.07113281 9.67113281 -0.0625 8.8125 C-0.05798828 7.96751953 -0.05347656 7.12253906 -0.04882812 6.25195312 C-0.03705403 4.16793845 -0.0191189 2.08396023 0 0 Z " fill="#131313" transform="translate(0,158)"/>
<path d="M0 0 C2.81166248 4.21749373 4.37795516 8.78191974 6.1875 13.5 C6.56841797 14.46292969 6.94933594 15.42585938 7.34179688 16.41796875 C7.69693359 17.34222656 8.05207031 18.26648438 8.41796875 19.21875 C8.74563232 20.06373047 9.0732959 20.90871094 9.41088867 21.77929688 C10 24 10 24 9 27 C7.48195055 23.63283712 5.98887643 20.25515189 4.5 16.875 C4.07074219 15.92367187 3.64148438 14.97234375 3.19921875 13.9921875 C-0.63400424 5.23053496 -0.63400424 5.23053496 0 0 Z " fill="#1B1B1B" transform="translate(187,79)"/>
<path d="M0 0 C0.66 0 1.32 0 2 0 C5.96407377 6.76869514 9.17050391 13.3262803 11 21 C12.98 21 14.96 21 17 21 C16.67 21.66 16.34 22.32 16 23 C14.02 23 12.04 23 10 23 C6.5796347 15.36995434 3.28179122 7.69033075 0 0 Z " fill="#0D0D0D" transform="translate(383,78)"/>
<path d="M0 0 C0.66 0.66 1.32 1.32 2 2 C1.67 2.556875 1.34 3.11375 1 3.6875 C-0.1590698 6.36784892 -0.29682458 8.10596033 0 11 C0.99 12.485 0.99 12.485 2 14 C-1 14 -1 14 -2.75 12.4375 C-4.54082034 8.94540033 -3.95158006 6.73835025 -3 3 C-1.4375 1.0625 -1.4375 1.0625 0 0 Z " fill="#1B1B1B" transform="translate(102,8)"/>
<path d="M0 0 C0.33 0 0.66 0 1 0 C1.08172652 1.72836466 1.13951818 3.45786959 1.1875 5.1875 C1.23970703 6.63189453 1.23970703 6.63189453 1.29296875 8.10546875 C0.93881806 11.6044776 0.33726219 13.35621162 -2 16 C-5.13671875 16.48828125 -5.13671875 16.48828125 -8.6875 16.3125 C-10.45673828 16.24482422 -10.45673828 16.24482422 -12.26171875 16.17578125 C-13.16535156 16.11777344 -14.06898438 16.05976563 -15 16 C-15 15.67 -15 15.34 -15 15 C-9.06 14.505 -9.06 14.505 -3 14 C-2.01 9.38 -1.02 4.76 0 0 Z " fill="#101010" transform="translate(363,132)"/>
<path d="M0 0 C1.485 0.99 1.485 0.99 3 2 C2.86722656 2.68964844 2.73445312 3.37929687 2.59765625 4.08984375 C1.47696987 10.05320412 0.59395227 15.96148529 0 22 C-0.33 22 -0.66 22 -1 22 C-1.02700675 19.08327116 -1.04684237 16.16679323 -1.0625 13.25 C-1.07087891 12.425 -1.07925781 11.6 -1.08789062 10.75 C-1.09111328 9.95078125 -1.09433594 9.1515625 -1.09765625 8.328125 C-1.10289307 7.5949707 -1.10812988 6.86181641 -1.11352539 6.10644531 C-0.9975109 3.9538151 -0.59073271 2.0685865 0 0 Z " fill="#131313" transform="translate(1,113)"/>
<path d="M0 0 C0.33 0.66 0.66 1.32 1 2 C-0.00161449 4.59535989 -1.0623883 7.05454353 -2.25 9.5625 C-2.56324219 10.26052734 -2.87648438 10.95855469 -3.19921875 11.67773438 C-4.04824808 13.49381164 -5.0178389 15.25233098 -6 17 C-6.99 17.33 -7.98 17.66 -9 18 C-8.09476787 13.7997229 -6.09717906 10.42033539 -3.9375 6.75 C-3.56044922 6.1003125 -3.18339844 5.450625 -2.79492188 4.78125 C-1.86765885 3.18494909 -0.93441544 1.59212471 0 0 Z " fill="#080808" transform="translate(331,51)"/>
<path d="M0 0 C3.89006773 1.38780795 6.96558708 3.2152227 10.3125 5.625 C11.19550781 6.25664062 12.07851563 6.88828125 12.98828125 7.5390625 C13.65214844 8.02117187 14.31601562 8.50328125 15 9 C14.67 9.66 14.34 10.32 14 11 C9.12262664 10.58193943 7.1850091 8.5933436 4 5 C2.64444707 3.35135455 1.30368347 1.68996005 0 0 Z " fill="#101010" transform="translate(30,226)"/>
<path d="M0 0 C3.66172475 0.62678171 6.8818995 1.64451846 10.3125 3.0625 C11.19550781 3.42472656 12.07851563 3.78695312 12.98828125 4.16015625 C13.65214844 4.43730469 14.31601562 4.71445313 15 5 C14.67 5.66 14.34 6.32 14 7 C11.03 6.505 11.03 6.505 8 6 C8 5.34 8 4.68 8 4 C6.865625 3.71125 5.73125 3.4225 4.5625 3.125 C3.386875 2.75375 2.21125 2.3825 1 2 C0.67 1.34 0.34 0.68 0 0 Z " fill="#111111" transform="translate(46,237)"/>
<path d="M0 0 C0.33 0.66 0.66 1.32 1 2 C-0.2739589 4.03833424 -1.61061923 6.03852126 -3 8 C-3.66 8 -4.32 8 -5 8 C-5 8.66 -5 9.32 -5 10 C-6.95927063 11.7143618 -8.95880212 13.38405168 -11 15 C-11.66 14.67 -12.32 14.34 -13 14 C-12.22914063 13.24074219 -11.45828125 12.48148438 -10.6640625 11.69921875 C-9.65090904 10.69544634 -8.63789552 9.69153268 -7.625 8.6875 C-7.11710937 8.18798828 -6.60921875 7.68847656 -6.0859375 7.17382812 C-3.77145867 4.87457613 -1.81652517 2.72478775 0 0 Z " fill="#131B16" transform="translate(401,196)"/>
<path d="M0 0 C0.33 0.99 0.66 1.98 1 3 C-0.21484375 5.26171875 -0.21484375 5.26171875 -1.9375 7.6875 C-2.78634766 8.89986328 -2.78634766 8.89986328 -3.65234375 10.13671875 C-4.09707031 10.75160156 -4.54179687 11.36648437 -5 12 C-5.66 11.34 -6.32 10.68 -7 10 C-4.14285714 2.42857143 -4.14285714 2.42857143 0 0 Z " fill="#161616" transform="translate(21,76)"/>
<path d="M0 0 C3.33333333 0.66666667 6.66666667 1.33333333 10 2 C11.40185547 2.28037109 11.40185547 2.28037109 12.83203125 2.56640625 C13.54746094 2.70949219 14.26289062 2.85257813 15 3 C14.01 3.495 14.01 3.495 13 4 C13 4.66 13 5.32 13 6 C8.14036821 5.39254603 4.2594482 3.27241033 0 1 C0 0.67 0 0.34 0 0 Z " fill="#BD5E1A" transform="translate(90,211)"/>
<path d="M0 0 C5.1786217 0.54511807 10.09894665 1.13759973 15 3 C16.4375 5.125 16.4375 5.125 17 7 C16.30519531 6.71382812 15.61039063 6.42765625 14.89453125 6.1328125 C11.8535735 4.94269408 8.78867525 3.89736547 5.6875 2.875 C4.61886719 2.52179687 3.55023438 2.16859375 2.44921875 1.8046875 C1.64097656 1.53914063 0.83273438 1.27359375 0 1 C0 0.67 0 0.34 0 0 Z " fill="#4B4B4B" transform="translate(118,40)"/>
<path d="M0 0 C0.66 1.32 1.32 2.64 2 4 C1.071875 3.773125 0.14375 3.54625 -0.8125 3.3125 C-3.96317152 2.62434952 -3.96317152 2.62434952 -5.75 4.4375 C-6.1625 4.953125 -6.575 5.46875 -7 6 C-7.66 6 -8.32 6 -9 6 C-7.01260984 0.46369883 -5.82303895 -0.15323787 0 0 Z " fill="#0B0B0B" transform="translate(287,157)"/>
<path d="M0 0 C1.0169313 2.65498232 1.13022151 3.69155375 0.00390625 6.359375 C-0.47175781 7.14828125 -0.94742187 7.9371875 -1.4375 8.75 C-1.91058594 9.54921875 -2.38367188 10.3484375 -2.87109375 11.171875 C-3.24363281 11.77515625 -3.61617188 12.3784375 -4 13 C-4.66 13 -5.32 13 -6 13 C-4.58707905 8.1725201 -2.57025846 4.2837641 0 0 Z " fill="#0D0D0D" transform="translate(265,185)"/>
<path d="M0 0 C0.92852245 3.71408981 1.02176119 5.95075922 0.6875 9.6875 C0.60886719 10.66074219 0.53023438 11.63398438 0.44921875 12.63671875 C0.30097656 13.41660156 0.15273438 14.19648438 0 15 C-0.99 15.495 -0.99 15.495 -2 16 C-2.66 14.02 -3.32 12.04 -4 10 C-3.34 10 -2.68 10 -2 10 C-1.34 6.7 -0.68 3.4 0 0 Z " fill="#080808" transform="translate(442,133)"/>
<path d="M0 0 C-1.41519715 2.0343459 -2.54982123 2.90410393 -4.98046875 3.421875 C-6.98176954 3.66273952 -8.9909944 3.83532741 -11 4 C-7.84441727 0.34616736 -4.73375145 -1.57791715 0 0 Z " fill="#111111" transform="translate(133,236)"/>
<path d="M0 0 C2.62451617 2.62451617 2.5832868 4.4877828 3.125 8.125 C3.29257812 9.22070312 3.46015625 10.31640625 3.6328125 11.4453125 C3.75398438 12.28835937 3.87515625 13.13140625 4 14 C3.01 13.67 2.02 13.34 1 13 C0.67 8.71 0.34 4.42 0 0 Z " fill="#0C0C0C" transform="translate(289,162)"/>
<path d="M0 0 C-1 2 -1 2 -3 4 C-3.66 2.35 -4.32 0.7 -5 -1 C-6.32 -0.67 -7.64 -0.34 -9 0 C-9 -0.66 -9 -1.32 -9 -2 C-5.08496436 -3.59501452 -3.33516624 -2.31608767 0 0 Z " fill="#1A1A19" transform="translate(143,51)"/>
<path d="M0 0 C0.33 0.66 0.66 1.32 1 2 C0.06553465 4.03144641 -0.93224776 6.03533587 -2 8 C-2.99 8 -3.98 8 -5 8 C-5.99 8.66 -6.98 9.32 -8 10 C-6.34908222 5.70761377 -3.26245434 3.1206085 0 0 Z " fill="#1B1B1A" transform="translate(160,211)"/>
<path d="M0 0 C0.66 0.66 1.32 1.32 2 2 C-0.3125 4.5 -0.3125 4.5 -3 7 C-3.99 7 -4.98 7 -6 7 C-2.25 1.125 -2.25 1.125 0 0 Z " fill="#1C1C1C" transform="translate(167,129)"/>
<path d="M0 0 C0.99 0 1.98 0 3 0 C4.28317892 3.84953676 4.06643637 6.94738135 4 11 C0.85041169 7.57653445 0.43820891 4.55737263 0 0 Z " fill="#141413" transform="translate(168,120)"/>
<path d="M0 0 C2.86867231 1.38264837 5.56024032 2.92148553 8.25 4.625 C8.95640625 5.07101563 9.6628125 5.51703125 10.390625 5.9765625 C10.92171875 6.31429687 11.4528125 6.65203125 12 7 C11.01 7.495 11.01 7.495 10 8 C5.36660757 6.1869334 2.8475202 4.05224029 0 0 Z " fill="#090909" transform="translate(74,194)"/>
<path d="M0 0 C1.65 0.33 3.3 0.66 5 1 C4.67 2.32 4.34 3.64 4 5 C1.69 5 -0.62 5 -3 5 C-1.68 4.01 -0.36 3.02 1 2 C0.67 1.34 0.34 0.68 0 0 Z " fill="#2A2A29" transform="translate(347,39)"/>
<path d="M0 0 C-4.39436211 0.85743651 -8.52572076 1.08948558 -13 1 C-9.33754357 -2.66245643 -4.25382404 -2.89260034 0 0 Z " fill="#1F1F1F" transform="translate(74,44)"/>
</svg>
